<svg width="200" height="260" viewBox="0 0 200 260" fill="none" xmlns="http://www.w3.org/2000/svg">
<rect width="200" height="260" rx="15" fill="#E6E8EA"/>
<path d="M69.752 182C69.6453 182 69.5547 181.968 69.48 181.904C69.416 181.829 69.384 181.739 69.384 181.632V177.856L65.528 171.328C65.528 171.307 65.5227 171.275 65.512 171.232C65.4907 171.189 65.48 171.152 65.48 171.12C65.48 171.035 65.512 170.96 65.576 170.896C65.64 170.832 65.7147 170.8 65.8 170.8H66.632C66.8133 170.8 66.952 170.891 67.048 171.072L70.168 176.256L73.288 171.072C73.4053 170.891 73.5493 170.8 73.72 170.8H74.536C74.632 170.8 74.712 170.832 74.776 170.896C74.84 170.96 74.872 171.035 74.872 171.12C74.872 171.173 74.8507 171.243 74.808 171.328L70.968 177.856V181.632C70.968 181.739 70.9307 181.829 70.856 181.904C70.7813 181.968 70.6907 182 70.584 182H69.752ZM78.6076 182.16C77.4343 182.16 76.5223 181.829 75.8716 181.168C75.2316 180.507 74.8903 179.627 74.8476 178.528L74.8316 177.84L74.8476 177.152C74.8903 176.064 75.237 175.189 75.8876 174.528C76.5383 173.856 77.445 173.52 78.6076 173.52C79.7703 173.52 80.677 173.856 81.3276 174.528C81.9783 175.189 82.325 176.064 82.3676 177.152C82.3783 177.269 82.3836 177.499 82.3836 177.84C82.3836 178.181 82.3783 178.411 82.3676 178.528C82.325 179.627 81.9783 180.507 81.3276 181.168C80.6876 181.829 79.781 182.16 78.6076 182.16ZM78.6076 180.928C79.2796 180.928 79.8076 180.715 80.1916 180.288C80.5863 179.861 80.7996 179.248 80.8316 178.448C80.8423 178.341 80.8476 178.139 80.8476 177.84C80.8476 177.541 80.8423 177.339 80.8316 177.232C80.7996 176.432 80.5863 175.819 80.1916 175.392C79.8076 174.965 79.2796 174.752 78.6076 174.752C77.9356 174.752 77.4023 174.965 77.0076 175.392C76.613 175.819 76.405 176.432 76.3836 177.232L76.3676 177.84L76.3836 178.448C76.405 179.248 76.613 179.861 77.0076 180.288C77.4023 180.715 77.9356 180.928 78.6076 180.928ZM87.4911 182.16C86.4778 182.16 85.6938 181.835 85.1391 181.184C84.5845 180.523 84.3071 179.648 84.3071 178.56V174.048C84.3071 173.941 84.3391 173.856 84.4031 173.792C84.4778 173.717 84.5685 173.68 84.6751 173.68H85.4751C85.5818 173.68 85.6671 173.717 85.7311 173.792C85.8058 173.856 85.8431 173.941 85.8431 174.048V178.48C85.8431 180.069 86.5365 180.864 87.9231 180.864C88.5951 180.864 89.1285 180.656 89.5231 180.24C89.9178 179.813 90.1151 179.227 90.1151 178.48V174.048C90.1151 173.941 90.1471 173.856 90.2111 173.792C90.2858 173.717 90.3765 173.68 90.4831 173.68H91.2831C91.3898 173.68 91.4751 173.717 91.5391 173.792C91.6031 173.856 91.6351 173.941 91.6351 174.048V181.632C91.6351 181.739 91.6031 181.829 91.5391 181.904C91.4751 181.968 91.3898 182 91.2831 182H90.5311C90.4245 182 90.3338 181.968 90.2591 181.904C90.1951 181.829 90.1631 181.739 90.1631 181.632V180.928C89.8645 181.333 89.5018 181.643 89.0751 181.856C88.6485 182.059 88.1205 182.16 87.4911 182.16ZM98.318 182C98.2113 182 98.1207 181.968 98.046 181.904C97.982 181.829 97.95 181.739 97.95 181.632V171.008C97.95 170.901 97.982 170.816 98.046 170.752C98.1207 170.677 98.2113 170.64 98.318 170.64H99.118C99.2247 170.64 99.31 170.677 99.374 170.752C99.4487 170.816 99.486 170.901 99.486 171.008V174.736C99.7953 174.341 100.158 174.043 100.574 173.84C100.99 173.627 101.507 173.52 102.126 173.52C103.15 173.52 103.945 173.851 104.51 174.512C105.086 175.163 105.374 176.032 105.374 177.12V181.632C105.374 181.739 105.337 181.829 105.262 181.904C105.198 181.968 105.113 182 105.006 182H104.206C104.099 182 104.009 181.968 103.934 181.904C103.87 181.829 103.838 181.739 103.838 181.632V177.2C103.838 176.443 103.651 175.856 103.278 175.44C102.915 175.024 102.387 174.816 101.694 174.816C101.022 174.816 100.483 175.029 100.078 175.456C99.6833 175.872 99.486 176.453 99.486 177.2V181.632C99.486 181.739 99.4487 181.829 99.374 181.904C99.31 181.968 99.2247 182 99.118 182H98.318ZM110.004 182.16C109.481 182.16 108.996 182.053 108.548 181.84C108.1 181.627 107.743 181.339 107.476 180.976C107.22 180.603 107.092 180.192 107.092 179.744C107.092 179.04 107.38 178.464 107.956 178.016C108.543 177.557 109.332 177.259 110.324 177.12L112.708 176.784V176.32C112.708 175.232 112.084 174.688 110.836 174.688C110.367 174.688 109.983 174.789 109.684 174.992C109.385 175.184 109.161 175.413 109.012 175.68C108.98 175.776 108.937 175.845 108.884 175.888C108.841 175.931 108.777 175.952 108.692 175.952H108.004C107.908 175.952 107.823 175.92 107.748 175.856C107.684 175.781 107.652 175.696 107.652 175.6C107.663 175.344 107.78 175.056 108.004 174.736C108.239 174.405 108.596 174.123 109.076 173.888C109.556 173.643 110.148 173.52 110.852 173.52C112.047 173.52 112.905 173.803 113.428 174.368C113.951 174.923 114.212 175.616 114.212 176.448V181.632C114.212 181.739 114.175 181.829 114.1 181.904C114.036 181.968 113.951 182 113.844 182H113.108C113.001 182 112.911 181.968 112.836 181.904C112.772 181.829 112.74 181.739 112.74 181.632V180.944C112.505 181.285 112.164 181.573 111.716 181.808C111.268 182.043 110.697 182.16 110.004 182.16ZM110.34 180.96C111.033 180.96 111.599 180.736 112.036 180.288C112.484 179.829 112.708 179.173 112.708 178.32V177.872L110.852 178.144C110.095 178.251 109.524 178.432 109.14 178.688C108.756 178.933 108.564 179.248 108.564 179.632C108.564 180.059 108.74 180.389 109.092 180.624C109.444 180.848 109.86 180.96 110.34 180.96ZM119.252 182C118.975 182 118.777 181.867 118.66 181.6L115.7 174.176L115.668 174.016C115.668 173.92 115.7 173.84 115.764 173.776C115.828 173.712 115.908 173.68 116.004 173.68H116.772C116.953 173.68 117.087 173.771 117.172 173.952L119.604 180.256L122.036 173.952C122.132 173.771 122.26 173.68 122.42 173.68H123.204C123.289 173.68 123.364 173.712 123.428 173.776C123.503 173.84 123.54 173.92 123.54 174.016L123.508 174.176L120.532 181.6C120.415 181.867 120.217 182 119.94 182H119.252ZM128.246 182.16C127.148 182.16 126.268 181.824 125.606 181.152C124.956 180.469 124.598 179.541 124.534 178.368L124.518 177.824L124.534 177.296C124.609 176.144 124.972 175.227 125.622 174.544C126.284 173.861 127.153 173.52 128.23 173.52C129.414 173.52 130.332 173.899 130.982 174.656C131.633 175.403 131.958 176.416 131.958 177.696V177.968C131.958 178.075 131.921 178.165 131.846 178.24C131.782 178.304 131.697 178.336 131.59 178.336H126.054V178.48C126.086 179.173 126.294 179.765 126.678 180.256C127.073 180.736 127.59 180.976 128.23 180.976C128.721 180.976 129.121 180.88 129.43 180.688C129.75 180.485 129.985 180.277 130.134 180.064C130.23 179.936 130.3 179.861 130.342 179.84C130.396 179.808 130.486 179.792 130.614 179.792H131.398C131.494 179.792 131.574 179.819 131.638 179.872C131.702 179.925 131.734 180 131.734 180.096C131.734 180.331 131.585 180.613 131.286 180.944C130.998 181.275 130.588 181.563 130.054 181.808C129.532 182.043 128.929 182.16 128.246 182.16ZM130.438 177.232V177.184C130.438 176.448 130.236 175.851 129.83 175.392C129.436 174.923 128.902 174.688 128.23 174.688C127.558 174.688 127.025 174.923 126.63 175.392C126.246 175.851 126.054 176.448 126.054 177.184V177.232H130.438Z" fill="#75798C"/>
<path d="M39.384 205C39.288 205 39.208 204.968 39.144 204.904C39.0907 204.829 39.064 204.744 39.064 204.648L39.096 204.504L43.08 195.192H37.832C37.7253 195.192 37.6347 195.16 37.56 195.096C37.496 195.021 37.464 194.931 37.464 194.824V194.184C37.464 194.067 37.496 193.976 37.56 193.912C37.6347 193.837 37.7253 193.8 37.832 193.8H44.392C44.5093 193.8 44.6 193.837 44.664 193.912C44.7387 193.976 44.776 194.067 44.776 194.184V194.776C44.776 194.968 44.7333 195.176 44.648 195.4L40.712 204.6C40.6587 204.717 40.5947 204.813 40.52 204.888C40.456 204.963 40.3653 205 40.248 205H39.384ZM50.677 205C50.5703 205 50.4797 204.968 50.405 204.904C50.341 204.829 50.309 204.739 50.309 204.632V197.048C50.309 196.941 50.341 196.856 50.405 196.792C50.4797 196.717 50.5703 196.68 50.677 196.68H51.429C51.5357 196.68 51.621 196.717 51.685 196.792C51.7597 196.856 51.797 196.941 51.797 197.048V197.752C52.1063 197.357 52.469 197.053 52.885 196.84C53.3117 196.627 53.8397 196.52 54.469 196.52C55.493 196.52 56.2877 196.851 56.853 197.512C57.429 198.163 57.717 199.032 57.717 200.12V204.632C57.717 204.739 57.6797 204.829 57.605 204.904C57.541 204.968 57.4557 205 57.349 205H56.549C56.4423 205 56.3517 204.968 56.277 204.904C56.213 204.829 56.181 204.739 56.181 204.632V200.2C56.181 199.443 55.9943 198.856 55.621 198.44C55.2583 198.024 54.7303 197.816 54.037 197.816C53.365 197.816 52.8317 198.029 52.437 198.456C52.0423 198.872 51.845 199.453 51.845 200.2V204.632C51.845 204.739 51.8077 204.829 51.733 204.904C51.669 204.968 51.5837 205 51.477 205H50.677ZM63.3401 205.16C62.2415 205.16 61.3615 204.824 60.7001 204.152C60.0495 203.469 59.6921 202.541 59.6281 201.368L59.6121 200.824L59.6281 200.296C59.7028 199.144 60.0655 198.227 60.7161 197.544C61.3775 196.861 62.2468 196.52 63.3241 196.52C64.5081 196.52 65.4255 196.899 66.0761 197.656C66.7268 198.403 67.0521 199.416 67.0521 200.696V200.968C67.0521 201.075 67.0148 201.165 66.9401 201.24C66.8761 201.304 66.7908 201.336 66.6841 201.336H61.1481V201.48C61.1801 202.173 61.3881 202.765 61.7721 203.256C62.1668 203.736 62.6841 203.976 63.3241 203.976C63.8148 203.976 64.2148 203.88 64.5241 203.688C64.8441 203.485 65.0788 203.277 65.2281 203.064C65.3241 202.936 65.3935 202.861 65.4361 202.84C65.4895 202.808 65.5801 202.792 65.7081 202.792H66.4921C66.5881 202.792 66.6681 202.819 66.7321 202.872C66.7961 202.925 66.8281 203 66.8281 203.096C66.8281 203.331 66.6788 203.613 66.3801 203.944C66.0921 204.275 65.6815 204.563 65.1481 204.808C64.6255 205.043 64.0228 205.16 63.3401 205.16ZM65.5321 200.232V200.184C65.5321 199.448 65.3295 198.851 64.9241 198.392C64.5295 197.923 63.9961 197.688 63.3241 197.688C62.6521 197.688 62.1188 197.923 61.7241 198.392C61.3401 198.851 61.1481 199.448 61.1481 200.184V200.232H65.5321ZM70.9545 205C70.8158 205 70.7092 204.968 70.6345 204.904C70.5598 204.84 70.4958 204.739 70.4425 204.6L68.1705 197.176L68.1385 197.016C68.1385 196.92 68.1705 196.84 68.2345 196.776C68.3092 196.712 68.3892 196.68 68.4745 196.68H69.1785C69.2852 196.68 69.3705 196.712 69.4345 196.776C69.5092 196.829 69.5572 196.888 69.5785 196.952L71.3545 202.984L73.2585 197.016C73.2798 196.931 73.3278 196.856 73.4025 196.792C73.4772 196.717 73.5785 196.68 73.7065 196.68H74.2505C74.3785 196.68 74.4798 196.717 74.5545 196.792C74.6292 196.856 74.6772 196.931 74.6985 197.016L76.6025 202.984L78.3785 196.952C78.3892 196.899 78.4265 196.84 78.4905 196.776C78.5652 196.712 78.6558 196.68 78.7625 196.68H79.4825C79.5678 196.68 79.6425 196.712 79.7065 196.776C79.7705 196.84 79.8025 196.92 79.8025 197.016L79.7705 197.176L77.5145 204.6C77.4612 204.739 77.3972 204.84 77.3225 204.904C77.2478 204.968 77.1358 205 76.9865 205H76.3625C76.0745 205 75.8985 204.867 75.8345 204.6L73.9785 198.872L72.1225 204.6C72.0372 204.867 71.8558 205 71.5785 205H70.9545ZM85.3615 195.128C85.2548 195.128 85.1642 195.096 85.0895 195.032C85.0255 194.957 84.9935 194.867 84.9935 194.76V193.896C84.9935 193.789 85.0255 193.699 85.0895 193.624C85.1642 193.549 85.2548 193.512 85.3615 193.512H86.3695C86.4762 193.512 86.5668 193.549 86.6415 193.624C86.7162 193.699 86.7535 193.789 86.7535 193.896V194.76C86.7535 194.867 86.7162 194.957 86.6415 195.032C86.5668 195.096 86.4762 195.128 86.3695 195.128H85.3615ZM85.4895 205C85.3828 205 85.2922 204.968 85.2175 204.904C85.1535 204.829 85.1215 204.739 85.1215 204.632V197.048C85.1215 196.941 85.1535 196.856 85.2175 196.792C85.2922 196.717 85.3828 196.68 85.4895 196.68H86.2575C86.3642 196.68 86.4495 196.717 86.5135 196.792C86.5882 196.856 86.6255 196.941 86.6255 197.048V204.632C86.6255 204.739 86.5882 204.829 86.5135 204.904C86.4495 204.968 86.3642 205 86.2575 205H85.4895ZM89.3645 205C89.2578 205 89.1672 204.968 89.0925 204.904C89.0285 204.829 88.9965 204.739 88.9965 204.632V197.048C88.9965 196.941 89.0285 196.856 89.0925 196.792C89.1672 196.717 89.2578 196.68 89.3645 196.68H90.1165C90.2232 196.68 90.3085 196.717 90.3725 196.792C90.4472 196.856 90.4845 196.941 90.4845 197.048V197.752C90.7938 197.357 91.1565 197.053 91.5725 196.84C91.9992 196.627 92.5272 196.52 93.1565 196.52C94.1805 196.52 94.9752 196.851 95.5405 197.512C96.1165 198.163 96.4045 199.032 96.4045 200.12V204.632C96.4045 204.739 96.3672 204.829 96.2925 204.904C96.2285 204.968 96.1432 205 96.0365 205H95.2365C95.1298 205 95.0392 204.968 94.9645 204.904C94.9005 204.829 94.8685 204.739 94.8685 204.632V200.2C94.8685 199.443 94.6818 198.856 94.3085 198.44C93.9458 198.024 93.4178 197.816 92.7245 197.816C92.0525 197.816 91.5192 198.029 91.1245 198.456C90.7298 198.872 90.5325 199.453 90.5325 200.2V204.632C90.5325 204.739 90.4952 204.829 90.4205 204.904C90.3565 204.968 90.2712 205 90.1645 205H89.3645ZM101.361 205C101.084 205 100.887 204.867 100.769 204.6L97.8092 197.176L97.7773 197.016C97.7773 196.92 97.8093 196.84 97.8733 196.776C97.9373 196.712 98.0173 196.68 98.1133 196.68H98.8813C99.0626 196.68 99.1959 196.771 99.2812 196.952L101.713 203.256L104.145 196.952C104.241 196.771 104.369 196.68 104.529 196.68H105.313C105.399 196.68 105.473 196.712 105.537 196.776C105.612 196.84 105.649 196.92 105.649 197.016L105.617 197.176L102.641 204.6C102.524 204.867 102.327 205 102.049 205H101.361ZM107.565 195.128C107.458 195.128 107.367 195.096 107.293 195.032C107.229 194.957 107.197 194.867 107.197 194.76V193.896C107.197 193.789 107.229 193.699 107.293 193.624C107.367 193.549 107.458 193.512 107.565 193.512H108.573C108.679 193.512 108.77 193.549 108.845 193.624C108.919 193.699 108.957 193.789 108.957 193.896V194.76C108.957 194.867 108.919 194.957 108.845 195.032C108.77 195.096 108.679 195.128 108.573 195.128H107.565ZM107.693 205C107.586 205 107.495 204.968 107.421 204.904C107.357 204.829 107.325 204.739 107.325 204.632V197.048C107.325 196.941 107.357 196.856 107.421 196.792C107.495 196.717 107.586 196.68 107.693 196.68H108.461C108.567 196.68 108.653 196.717 108.717 196.792C108.791 196.856 108.829 196.941 108.829 197.048V204.632C108.829 204.739 108.791 204.829 108.717 204.904C108.653 204.968 108.567 205 108.461 205H107.693ZM114.448 205C112.762 205 111.92 204.061 111.92 202.184V197.96H110.672C110.565 197.96 110.474 197.928 110.4 197.864C110.336 197.789 110.304 197.699 110.304 197.592V197.048C110.304 196.941 110.336 196.856 110.4 196.792C110.474 196.717 110.565 196.68 110.672 196.68H111.92V194.008C111.92 193.901 111.952 193.816 112.016 193.752C112.09 193.677 112.181 193.64 112.288 193.64H113.04C113.146 193.64 113.232 193.677 113.296 193.752C113.37 193.816 113.408 193.901 113.408 194.008V196.68H115.392C115.498 196.68 115.584 196.717 115.648 196.792C115.722 196.856 115.76 196.941 115.76 197.048V197.592C115.76 197.699 115.722 197.789 115.648 197.864C115.584 197.928 115.498 197.96 115.392 197.96H113.408V202.072C113.408 202.605 113.498 203.011 113.68 203.288C113.861 203.555 114.16 203.688 114.576 203.688H115.552C115.658 203.688 115.744 203.725 115.808 203.8C115.882 203.864 115.92 203.949 115.92 204.056V204.632C115.92 204.739 115.882 204.829 115.808 204.904C115.744 204.968 115.658 205 115.552 205H114.448ZM119.77 205.16C119.247 205.16 118.762 205.053 118.314 204.84C117.866 204.627 117.508 204.339 117.242 203.976C116.986 203.603 116.858 203.192 116.858 202.744C116.858 202.04 117.146 201.464 117.722 201.016C118.308 200.557 119.098 200.259 120.09 200.12L122.474 199.784V199.32C122.474 198.232 121.85 197.688 120.602 197.688C120.132 197.688 119.748 197.789 119.45 197.992C119.151 198.184 118.927 198.413 118.778 198.68C118.746 198.776 118.703 198.845 118.65 198.888C118.607 198.931 118.543 198.952 118.458 198.952H117.77C117.674 198.952 117.588 198.92 117.514 198.856C117.45 198.781 117.418 198.696 117.418 198.6C117.428 198.344 117.546 198.056 117.77 197.736C118.004 197.405 118.362 197.123 118.842 196.888C119.322 196.643 119.914 196.52 120.618 196.52C121.812 196.52 122.671 196.803 123.194 197.368C123.716 197.923 123.978 198.616 123.978 199.448V204.632C123.978 204.739 123.94 204.829 123.866 204.904C123.802 204.968 123.716 205 123.61 205H122.874C122.767 205 122.676 204.968 122.602 204.904C122.538 204.829 122.506 204.739 122.506 204.632V203.944C122.271 204.285 121.93 204.573 121.482 204.808C121.034 205.043 120.463 205.16 119.77 205.16ZM120.106 203.96C120.799 203.96 121.364 203.736 121.802 203.288C122.25 202.829 122.474 202.173 122.474 201.32V200.872L120.618 201.144C119.86 201.251 119.29 201.432 118.906 201.688C118.522 201.933 118.33 202.248 118.33 202.632C118.33 203.059 118.506 203.389 118.858 203.624C119.21 203.848 119.626 203.96 120.106 203.96ZM129.448 205C127.762 205 126.92 204.061 126.92 202.184V197.96H125.672C125.565 197.96 125.474 197.928 125.4 197.864C125.336 197.789 125.304 197.699 125.304 197.592V197.048C125.304 196.941 125.336 196.856 125.4 196.792C125.474 196.717 125.565 196.68 125.672 196.68H126.92V194.008C126.92 193.901 126.952 193.816 127.016 193.752C127.09 193.677 127.181 193.64 127.288 193.64H128.04C128.146 193.64 128.232 193.677 128.296 193.752C128.37 193.816 128.408 193.901 128.408 194.008V196.68H130.392C130.498 196.68 130.584 196.717 130.648 196.792C130.722 196.856 130.76 196.941 130.76 197.048V197.592C130.76 197.699 130.722 197.789 130.648 197.864C130.584 197.928 130.498 197.96 130.392 197.96H128.408V202.072C128.408 202.605 128.498 203.011 128.68 203.288C128.861 203.555 129.16 203.688 129.576 203.688H130.552C130.658 203.688 130.744 203.725 130.808 203.8C130.882 203.864 130.92 203.949 130.92 204.056V204.632C130.92 204.739 130.882 204.829 130.808 204.904C130.744 204.968 130.658 205 130.552 205H129.448ZM132.69 195.128C132.583 195.128 132.492 195.096 132.418 195.032C132.354 194.957 132.322 194.867 132.322 194.76V193.896C132.322 193.789 132.354 193.699 132.418 193.624C132.492 193.549 132.583 193.512 132.69 193.512H133.698C133.804 193.512 133.895 193.549 133.97 193.624C134.044 193.699 134.082 193.789 134.082 193.896V194.76C134.082 194.867 134.044 194.957 133.97 195.032C133.895 195.096 133.804 195.128 133.698 195.128H132.69ZM132.818 205C132.711 205 132.62 204.968 132.546 204.904C132.482 204.829 132.45 204.739 132.45 204.632V197.048C132.45 196.941 132.482 196.856 132.546 196.792C132.62 196.717 132.711 196.68 132.818 196.68H133.586C133.692 196.68 133.778 196.717 133.842 196.792C133.916 196.856 133.954 196.941 133.954 197.048V204.632C133.954 204.739 133.916 204.829 133.842 204.904C133.778 204.968 133.692 205 133.586 205H132.818ZM139.733 205.16C138.559 205.16 137.647 204.829 136.997 204.168C136.357 203.507 136.015 202.627 135.973 201.528L135.957 200.84L135.973 200.152C136.015 199.064 136.362 198.189 137.013 197.528C137.663 196.856 138.57 196.52 139.733 196.52C140.895 196.52 141.802 196.856 142.453 197.528C143.103 198.189 143.45 199.064 143.493 200.152C143.503 200.269 143.509 200.499 143.509 200.84C143.509 201.181 143.503 201.411 143.493 201.528C143.45 202.627 143.103 203.507 142.453 204.168C141.813 204.829 140.906 205.16 139.733 205.16ZM139.733 203.928C140.405 203.928 140.933 203.715 141.317 203.288C141.711 202.861 141.925 202.248 141.957 201.448C141.967 201.341 141.973 201.139 141.973 200.84C141.973 200.541 141.967 200.339 141.957 200.232C141.925 199.432 141.711 198.819 141.317 198.392C140.933 197.965 140.405 197.752 139.733 197.752C139.061 197.752 138.527 197.965 138.133 198.392C137.738 198.819 137.53 199.432 137.509 200.232L137.493 200.84L137.509 201.448C137.53 202.248 137.738 202.861 138.133 203.288C138.527 203.715 139.061 203.928 139.733 203.928ZM145.88 205C145.773 205 145.683 204.968 145.608 204.904C145.544 204.829 145.512 204.739 145.512 204.632V197.048C145.512 196.941 145.544 196.856 145.608 196.792C145.683 196.717 145.773 196.68 145.88 196.68H146.632C146.739 196.68 146.824 196.717 146.888 196.792C146.963 196.856 147 196.941 147 197.048V197.752C147.309 197.357 147.672 197.053 148.088 196.84C148.515 196.627 149.043 196.52 149.672 196.52C150.696 196.52 151.491 196.851 152.056 197.512C152.632 198.163 152.92 199.032 152.92 200.12V204.632C152.92 204.739 152.883 204.829 152.808 204.904C152.744 204.968 152.659 205 152.552 205H151.752C151.645 205 151.555 204.968 151.48 204.904C151.416 204.829 151.384 204.739 151.384 204.632V200.2C151.384 199.443 151.197 198.856 150.824 198.44C150.461 198.024 149.933 197.816 149.24 197.816C148.568 197.816 148.035 198.029 147.64 198.456C147.245 198.872 147.048 199.453 147.048 200.2V204.632C147.048 204.739 147.011 204.829 146.936 204.904C146.872 204.968 146.787 205 146.68 205H145.88ZM158.095 205.16C157.349 205.16 156.719 205.043 156.207 204.808C155.706 204.563 155.327 204.285 155.071 203.976C154.826 203.667 154.703 203.411 154.703 203.208C154.703 203.101 154.741 203.021 154.815 202.968C154.901 202.904 154.986 202.872 155.071 202.872H155.791C155.898 202.872 155.994 202.925 156.079 203.032C156.335 203.331 156.613 203.565 156.911 203.736C157.21 203.907 157.61 203.992 158.111 203.992C158.666 203.992 159.114 203.885 159.455 203.672C159.807 203.448 159.983 203.144 159.983 202.76C159.983 202.504 159.909 202.296 159.759 202.136C159.621 201.965 159.375 201.821 159.023 201.704C158.682 201.576 158.17 201.437 157.487 201.288C156.559 201.085 155.898 200.792 155.503 200.408C155.119 200.024 154.927 199.528 154.927 198.92C154.927 198.515 155.045 198.131 155.279 197.768C155.525 197.395 155.877 197.096 156.335 196.872C156.805 196.637 157.365 196.52 158.015 196.52C158.698 196.52 159.279 196.632 159.759 196.856C160.239 197.08 160.597 197.347 160.831 197.656C161.077 197.955 161.199 198.205 161.199 198.408C161.199 198.504 161.162 198.584 161.087 198.648C161.023 198.712 160.943 198.744 160.847 198.744H160.175C160.047 198.744 159.941 198.691 159.855 198.584C159.685 198.381 159.535 198.227 159.407 198.12C159.29 198.003 159.114 197.901 158.879 197.816C158.655 197.731 158.367 197.688 158.015 197.688C157.503 197.688 157.109 197.8 156.831 198.024C156.554 198.237 156.415 198.52 156.415 198.872C156.415 199.096 156.474 199.288 156.591 199.448C156.709 199.597 156.933 199.736 157.263 199.864C157.605 199.992 158.095 200.125 158.735 200.264C159.749 200.477 160.463 200.787 160.879 201.192C161.306 201.587 161.519 202.093 161.519 202.712C161.519 203.171 161.386 203.587 161.119 203.96C160.853 204.333 160.458 204.627 159.935 204.84C159.423 205.053 158.81 205.16 158.095 205.16Z" fill="#4A4FFF"/>
<path d="M24.52 150C24.3067 150 24.1253 149.936 23.976 149.808C23.848 149.659 23.784 149.477 23.784 149.264V128.336C23.784 128.123 23.848 127.952 23.976 127.824C24.1253 127.675 24.3067 127.6 24.52 127.6H26.216C26.4293 127.6 26.6 127.675 26.728 127.824C26.8773 127.952 26.952 128.123 26.952 128.336V149.264C26.952 149.477 26.8773 149.659 26.728 149.808C26.6 149.936 26.4293 150 26.216 150H24.52ZM32.854 150C32.6407 150 32.4593 149.936 32.31 149.808C32.182 149.659 32.118 149.477 32.118 149.264V134.096C32.118 133.883 32.182 133.712 32.31 133.584C32.4593 133.435 32.6407 133.36 32.854 133.36H34.358C34.5713 133.36 34.742 133.435 34.87 133.584C35.0193 133.712 35.094 133.883 35.094 134.096V135.504C35.7127 134.715 36.438 134.107 37.27 133.68C38.1233 133.253 39.1793 133.04 40.438 133.04C42.486 133.04 44.0753 133.701 45.206 135.024C46.358 136.325 46.934 138.064 46.934 140.24V149.264C46.934 149.477 46.8593 149.659 46.71 149.808C46.582 149.936 46.4113 150 46.198 150H44.598C44.3847 150 44.2033 149.936 44.054 149.808C43.926 149.659 43.862 149.477 43.862 149.264V140.4C43.862 138.885 43.4887 137.712 42.742 136.88C42.0167 136.048 40.9607 135.632 39.574 135.632C38.23 135.632 37.1633 136.059 36.374 136.912C35.5847 137.744 35.19 138.907 35.19 140.4V149.264C35.19 149.477 35.1153 149.659 34.966 149.808C34.838 149.936 34.6673 150 34.454 150H32.854ZM56.8475 150C56.2928 150 55.8982 149.733 55.6635 149.2L49.7435 134.352L49.6795 134.032C49.6795 133.84 49.7435 133.68 49.8715 133.552C49.9995 133.424 50.1595 133.36 50.3515 133.36H51.8875C52.2502 133.36 52.5168 133.541 52.6875 133.904L57.5515 146.512L62.4155 133.904C62.6075 133.541 62.8635 133.36 63.1835 133.36H64.7515C64.9222 133.36 65.0715 133.424 65.1995 133.552C65.3488 133.68 65.4235 133.84 65.4235 134.032L65.3595 134.352L59.4075 149.2C59.1728 149.733 58.7782 150 58.2235 150H56.8475ZM69.2543 130.256C69.0409 130.256 68.8596 130.192 68.7103 130.064C68.5823 129.915 68.5182 129.733 68.5182 129.52V127.792C68.5182 127.579 68.5823 127.397 68.7103 127.248C68.8596 127.099 69.0409 127.024 69.2543 127.024H71.2703C71.4836 127.024 71.6649 127.099 71.8143 127.248C71.9636 127.397 72.0383 127.579 72.0383 127.792V129.52C72.0383 129.733 71.9636 129.915 71.8143 130.064C71.6649 130.192 71.4836 130.256 71.2703 130.256H69.2543ZM69.5103 150C69.2969 150 69.1156 149.936 68.9663 149.808C68.8383 149.659 68.7743 149.477 68.7743 149.264V134.096C68.7743 133.883 68.8383 133.712 68.9663 133.584C69.1156 133.435 69.2969 133.36 69.5103 133.36H71.0463C71.2596 133.36 71.4303 133.435 71.5583 133.584C71.7076 133.712 71.7823 133.883 71.7823 134.096V149.264C71.7823 149.477 71.7076 149.659 71.5583 149.808C71.4303 149.936 71.2596 150 71.0463 150H69.5103ZM83.0203 150C79.6496 150 77.9643 148.123 77.9643 144.368V135.92H75.4683C75.2549 135.92 75.0736 135.856 74.9243 135.728C74.7963 135.579 74.7323 135.397 74.7323 135.184V134.096C74.7323 133.883 74.7963 133.712 74.9243 133.584C75.0736 133.435 75.2549 133.36 75.4683 133.36H77.9643V128.016C77.9643 127.803 78.0283 127.632 78.1562 127.504C78.3056 127.355 78.4869 127.28 78.7003 127.28H80.2043C80.4176 127.28 80.5883 127.355 80.7163 127.504C80.8656 127.632 80.9403 127.803 80.9403 128.016V133.36H84.9083C85.1216 133.36 85.2923 133.435 85.4203 133.584C85.5696 133.712 85.6443 133.883 85.6443 134.096V135.184C85.6443 135.397 85.5696 135.579 85.4203 135.728C85.2923 135.856 85.1216 135.92 84.9083 135.92H80.9403V144.144C80.9403 145.211 81.1216 146.021 81.4843 146.576C81.8469 147.109 82.4443 147.376 83.2763 147.376H85.2283C85.4416 147.376 85.6123 147.451 85.7403 147.6C85.8896 147.728 85.9643 147.899 85.9643 148.112V149.264C85.9643 149.477 85.8896 149.659 85.7403 149.808C85.6123 149.936 85.4416 150 85.2283 150H83.0203ZM93.6643 150.32C92.6189 150.32 91.6483 150.107 90.7523 149.68C89.8563 149.253 89.1416 148.677 88.6083 147.952C88.0963 147.205 87.8403 146.384 87.8403 145.488C87.8403 144.08 88.4163 142.928 89.5683 142.032C90.7416 141.115 92.3203 140.517 94.3043 140.24L99.0723 139.568V138.64C99.0723 136.464 97.8243 135.376 95.3283 135.376C94.3896 135.376 93.6216 135.579 93.0243 135.984C92.4269 136.368 91.9789 136.827 91.6803 137.36C91.6163 137.552 91.5309 137.691 91.4243 137.776C91.3389 137.861 91.2109 137.904 91.0403 137.904H89.6643C89.4723 137.904 89.3016 137.84 89.1523 137.712C89.0243 137.563 88.9603 137.392 88.9603 137.2C88.9816 136.688 89.2163 136.112 89.6643 135.472C90.1336 134.811 90.8483 134.245 91.8083 133.776C92.7683 133.285 93.9523 133.04 95.3603 133.04C97.7496 133.04 99.4669 133.605 100.512 134.736C101.558 135.845 102.08 137.232 102.08 138.896V149.264C102.08 149.477 102.006 149.659 101.856 149.808C101.728 149.936 101.558 150 101.344 150H99.8723C99.6589 150 99.4776 149.936 99.3283 149.808C99.2003 149.659 99.1363 149.477 99.1363 149.264V147.888C98.6669 148.571 97.9843 149.147 97.0883 149.616C96.1923 150.085 95.0509 150.32 93.6643 150.32ZM94.3363 147.92C95.7229 147.92 96.8536 147.472 97.7283 146.576C98.6243 145.659 99.0723 144.347 99.0723 142.64V141.744L95.3603 142.288C93.8456 142.501 92.7043 142.864 91.9363 143.376C91.1683 143.867 90.7843 144.496 90.7843 145.264C90.7843 146.117 91.1363 146.779 91.8403 147.248C92.5443 147.696 93.3763 147.92 94.3363 147.92ZM113.02 150C109.65 150 107.964 148.123 107.964 144.368V135.92H105.468C105.255 135.92 105.074 135.856 104.924 135.728C104.796 135.579 104.732 135.397 104.732 135.184V134.096C104.732 133.883 104.796 133.712 104.924 133.584C105.074 133.435 105.255 133.36 105.468 133.36H107.964V128.016C107.964 127.803 108.028 127.632 108.156 127.504C108.306 127.355 108.487 127.28 108.7 127.28H110.204C110.418 127.28 110.588 127.355 110.716 127.504C110.866 127.632 110.94 127.803 110.94 128.016V133.36H114.908C115.122 133.36 115.292 133.435 115.42 133.584C115.57 133.712 115.644 133.883 115.644 134.096V135.184C115.644 135.397 115.57 135.579 115.42 135.728C115.292 135.856 115.122 135.92 114.908 135.92H110.94V144.144C110.94 145.211 111.122 146.021 111.484 146.576C111.847 147.109 112.444 147.376 113.276 147.376H115.228C115.442 147.376 115.612 147.451 115.74 147.6C115.89 147.728 115.964 147.899 115.964 148.112V149.264C115.964 149.477 115.89 149.659 115.74 149.808C115.612 149.936 115.442 150 115.228 150H113.02ZM119.504 130.256C119.291 130.256 119.11 130.192 118.96 130.064C118.832 129.915 118.768 129.733 118.768 129.52V127.792C118.768 127.579 118.832 127.397 118.96 127.248C119.11 127.099 119.291 127.024 119.504 127.024H121.52C121.734 127.024 121.915 127.099 122.064 127.248C122.214 127.397 122.288 127.579 122.288 127.792V129.52C122.288 129.733 122.214 129.915 122.064 130.064C121.915 130.192 121.734 130.256 121.52 130.256H119.504ZM119.76 150C119.547 150 119.366 149.936 119.216 149.808C119.088 149.659 119.024 149.477 119.024 149.264V134.096C119.024 133.883 119.088 133.712 119.216 133.584C119.366 133.435 119.547 133.36 119.76 133.36H121.296C121.51 133.36 121.68 133.435 121.808 133.584C121.958 133.712 122.032 133.883 122.032 134.096V149.264C122.032 149.477 121.958 149.659 121.808 149.808C121.68 149.936 121.51 150 121.296 150H119.76ZM133.59 150.32C131.244 150.32 129.42 149.659 128.118 148.336C126.838 147.013 126.156 145.253 126.07 143.056L126.038 141.68L126.07 140.304C126.156 138.128 126.849 136.379 128.15 135.056C129.452 133.712 131.265 133.04 133.59 133.04C135.916 133.04 137.729 133.712 139.03 135.056C140.332 136.379 141.025 138.128 141.11 140.304C141.132 140.539 141.142 140.997 141.142 141.68C141.142 142.363 141.132 142.821 141.11 143.056C141.025 145.253 140.332 147.013 139.03 148.336C137.75 149.659 135.937 150.32 133.59 150.32ZM133.59 147.856C134.934 147.856 135.99 147.429 136.758 146.576C137.548 145.723 137.974 144.496 138.038 142.896C138.06 142.683 138.07 142.277 138.07 141.68C138.07 141.083 138.06 140.677 138.038 140.464C137.974 138.864 137.548 137.637 136.758 136.784C135.99 135.931 134.934 135.504 133.59 135.504C132.246 135.504 131.18 135.931 130.39 136.784C129.601 137.637 129.185 138.864 129.142 140.464L129.11 141.68L129.142 142.896C129.185 144.496 129.601 145.723 130.39 146.576C131.18 147.429 132.246 147.856 133.59 147.856ZM145.885 150C145.672 150 145.491 149.936 145.341 149.808C145.213 149.659 145.149 149.477 145.149 149.264V134.096C145.149 133.883 145.213 133.712 145.341 133.584C145.491 133.435 145.672 133.36 145.885 133.36H147.389C147.603 133.36 147.773 133.435 147.901 133.584C148.051 133.712 148.125 133.883 148.125 134.096V135.504C148.744 134.715 149.469 134.107 150.301 133.68C151.155 133.253 152.211 133.04 153.469 133.04C155.517 133.04 157.107 133.701 158.237 135.024C159.389 136.325 159.965 138.064 159.965 140.24V149.264C159.965 149.477 159.891 149.659 159.741 149.808C159.613 149.936 159.443 150 159.229 150H157.629C157.416 150 157.235 149.936 157.085 149.808C156.957 149.659 156.893 149.477 156.893 149.264V140.4C156.893 138.885 156.52 137.712 155.773 136.88C155.048 136.048 153.992 135.632 152.605 135.632C151.261 135.632 150.195 136.059 149.405 136.912C148.616 137.744 148.221 138.907 148.221 140.4V149.264C148.221 149.477 148.147 149.659 147.997 149.808C147.869 149.936 147.699 150 147.485 150H145.885ZM170.316 150.32C168.822 150.32 167.564 150.085 166.54 149.616C165.537 149.125 164.78 148.571 164.268 147.952C163.777 147.333 163.532 146.821 163.532 146.416C163.532 146.203 163.606 146.043 163.756 145.936C163.926 145.808 164.097 145.744 164.268 145.744H165.708C165.921 145.744 166.113 145.851 166.284 146.064C166.796 146.661 167.35 147.131 167.948 147.472C168.545 147.813 169.345 147.984 170.348 147.984C171.457 147.984 172.353 147.771 173.036 147.344C173.74 146.896 174.092 146.288 174.092 145.52C174.092 145.008 173.942 144.592 173.644 144.272C173.366 143.931 172.876 143.643 172.172 143.408C171.489 143.152 170.465 142.875 169.1 142.576C167.244 142.171 165.921 141.584 165.132 140.816C164.364 140.048 163.98 139.056 163.98 137.84C163.98 137.029 164.214 136.261 164.684 135.536C165.174 134.789 165.878 134.192 166.796 133.744C167.734 133.275 168.854 133.04 170.156 133.04C171.521 133.04 172.684 133.264 173.644 133.712C174.604 134.16 175.318 134.693 175.788 135.312C176.278 135.909 176.524 136.411 176.524 136.816C176.524 137.008 176.449 137.168 176.3 137.296C176.172 137.424 176.012 137.488 175.82 137.488H174.476C174.22 137.488 174.006 137.381 173.836 137.168C173.494 136.763 173.196 136.453 172.94 136.24C172.705 136.005 172.353 135.803 171.884 135.632C171.436 135.461 170.86 135.376 170.156 135.376C169.132 135.376 168.342 135.6 167.788 136.048C167.233 136.475 166.956 137.04 166.956 137.744C166.956 138.192 167.073 138.576 167.308 138.896C167.542 139.195 167.99 139.472 168.652 139.728C169.334 139.984 170.316 140.251 171.595 140.528C173.622 140.955 175.052 141.573 175.884 142.384C176.737 143.173 177.164 144.187 177.164 145.424C177.164 146.341 176.897 147.173 176.364 147.92C175.83 148.667 175.041 149.253 173.996 149.68C172.972 150.107 171.745 150.32 170.316 150.32Z" fill="#171E3C"/>
<circle cx="100" cy="64" r="44" fill="#D0D1D8"/>
<path d="M73.75 52.3333L96.7642 67.6762C98.7237 68.9825 101.276 68.9825 103.236 67.6762L126.25 52.3333M79.5833 84.4167H120.417C123.638 84.4167 126.25 81.805 126.25 78.5833V49.4167C126.25 46.195 123.638 43.5833 120.417 43.5833H79.5833C76.3617 43.5833 73.75 46.195 73.75 49.4167V78.5833C73.75 81.805 76.3617 84.4167 79.5833 84.4167Z" stroke="#4A4FFF" stroke-width="2" stroke-linecap="round" stroke-linejoin="round"/>
</svg>
