<svg width="151" height="138" viewBox="0 0 151 138" fill="none" xmlns="http://www.w3.org/2000/svg">
<g id="tasks">
<rect id="Rectangle 37" width="151" height="138" rx="15" fill="#E6E8EA"/>
<path id="Home page" d="M21.632 101C21.5253 101 21.4347 100.963 21.36 100.888C21.2853 100.813 21.248 100.723 21.248 100.616V90.2C21.248 90.0827 21.28 89.9867 21.344 89.912C21.4187 89.8373 21.5147 89.8 21.632 89.8H23.088C23.2053 89.8 23.296 89.8373 23.36 89.912C23.4347 89.9867 23.472 90.0827 23.472 90.2V94.328H28.192V90.2C28.192 90.0827 28.224 89.9867 28.288 89.912C28.3627 89.8373 28.4587 89.8 28.576 89.8H30.016C30.1333 89.8 30.2293 89.8373 30.304 89.912C30.3787 89.9867 30.416 90.0827 30.416 90.2V100.616C30.416 100.733 30.3787 100.829 30.304 100.904C30.2293 100.968 30.1333 101 30.016 101H28.576C28.4693 101 28.3787 100.963 28.304 100.888C28.2293 100.813 28.192 100.723 28.192 100.616V96.328H23.472V100.616C23.472 100.723 23.4347 100.813 23.36 100.888C23.296 100.963 23.2053 101 23.088 101H21.632ZM36.3923 101.16C35.1443 101.16 34.1789 100.84 33.4963 100.2C32.8136 99.5493 32.4456 98.664 32.3923 97.544L32.3763 96.84L32.3923 96.136C32.4456 95.0267 32.8189 94.1467 33.5123 93.496C34.2056 92.8453 35.1656 92.52 36.3923 92.52C37.6189 92.52 38.5789 92.8453 39.2723 93.496C39.9656 94.1467 40.3389 95.0267 40.3923 96.136C40.4029 96.264 40.4083 96.4987 40.4083 96.84C40.4083 97.1813 40.4029 97.416 40.3923 97.544C40.3389 98.664 39.9709 99.5493 39.2883 100.2C38.6056 100.84 37.6403 101.16 36.3923 101.16ZM36.3923 99.576C36.9576 99.576 37.3949 99.4 37.7043 99.048C38.0136 98.6853 38.1843 98.1573 38.2163 97.464C38.2269 97.3573 38.2323 97.1493 38.2323 96.84C38.2323 96.5307 38.2269 96.3227 38.2163 96.216C38.1843 95.5227 38.0136 95 37.7043 94.648C37.3949 94.2853 36.9576 94.104 36.3923 94.104C35.8269 94.104 35.3896 94.2853 35.0803 94.648C34.7709 95 34.6003 95.5227 34.5683 96.216L34.5523 96.84L34.5683 97.464C34.6003 98.1573 34.7709 98.6853 35.0803 99.048C35.3896 99.4 35.8269 99.576 36.3923 99.576ZM42.565 101C42.4583 101 42.3677 100.963 42.293 100.888C42.2183 100.813 42.181 100.723 42.181 100.616V93.064C42.181 92.9573 42.2183 92.8667 42.293 92.792C42.3677 92.7173 42.4583 92.68 42.565 92.68H43.813C43.9197 92.68 44.0103 92.7173 44.085 92.792C44.1597 92.8667 44.197 92.9573 44.197 93.064V93.608C44.7517 92.8827 45.525 92.52 46.517 92.52C47.701 92.52 48.5277 92.9947 48.997 93.944C49.253 93.5173 49.6157 93.176 50.085 92.92C50.5543 92.6533 51.061 92.52 51.605 92.52C52.4797 92.52 53.1943 92.8187 53.749 93.416C54.3037 94.0133 54.581 94.8827 54.581 96.024V100.616C54.581 100.723 54.5437 100.813 54.469 100.888C54.405 100.963 54.3143 101 54.197 101H52.885C52.7783 101 52.6877 100.963 52.613 100.888C52.5383 100.813 52.501 100.723 52.501 100.616V96.152C52.501 95.48 52.357 94.9947 52.069 94.696C51.7917 94.3867 51.4183 94.232 50.949 94.232C50.533 94.232 50.1757 94.3867 49.877 94.696C49.589 95.0053 49.445 95.4907 49.445 96.152V100.616C49.445 100.723 49.4077 100.813 49.333 100.888C49.2583 100.963 49.1677 101 49.061 101H47.749C47.6423 101 47.5517 100.963 47.477 100.888C47.4023 100.813 47.365 100.723 47.365 100.616V96.152C47.365 95.48 47.2157 94.9947 46.917 94.696C46.629 94.3867 46.261 94.232 45.813 94.232C45.3863 94.232 45.0237 94.3867 44.725 94.696C44.437 95.0053 44.293 95.4907 44.293 96.152V100.616C44.293 100.723 44.2557 100.813 44.181 100.888C44.1063 100.963 44.0157 101 43.909 101H42.565ZM60.2025 101.16C59.0185 101.16 58.0745 100.819 57.3705 100.136C56.6772 99.4427 56.3092 98.472 56.2665 97.224L56.2505 96.824L56.2665 96.424C56.3198 95.208 56.6932 94.2533 57.3865 93.56C58.0905 92.8667 59.0292 92.52 60.2025 92.52C61.4612 92.52 62.4318 92.904 63.1145 93.672C63.8078 94.44 64.1545 95.464 64.1545 96.744V97.08C64.1545 97.1867 64.1172 97.2773 64.0425 97.352C63.9678 97.4267 63.8718 97.464 63.7545 97.464H58.4425V97.592C58.4638 98.1787 58.6238 98.6747 58.9225 99.08C59.2318 99.4747 59.6532 99.672 60.1865 99.672C60.8158 99.672 61.3225 99.4267 61.7065 98.936C61.8025 98.8187 61.8772 98.744 61.9305 98.712C61.9945 98.68 62.0852 98.664 62.2025 98.664H63.5785C63.6745 98.664 63.7545 98.696 63.8185 98.76C63.8932 98.8133 63.9305 98.8827 63.9305 98.968C63.9305 99.224 63.7758 99.528 63.4665 99.88C63.1678 100.221 62.7358 100.52 62.1705 100.776C61.6052 101.032 60.9492 101.16 60.2025 101.16ZM61.9785 96.12V96.072C61.9785 95.4427 61.8185 94.936 61.4985 94.552C61.1892 94.168 60.7572 93.976 60.2025 93.976C59.6478 93.976 59.2158 94.168 58.9065 94.552C58.5972 94.936 58.4425 95.4427 58.4425 96.072V96.12H61.9785ZM69.9091 104.04C69.8025 104.04 69.7118 104.003 69.6371 103.928C69.5625 103.864 69.5251 103.773 69.5251 103.656V93.064C69.5251 92.9467 69.5625 92.856 69.6371 92.792C69.7118 92.7173 69.8025 92.68 69.9091 92.68H71.1731C71.2905 92.68 71.3811 92.7173 71.4451 92.792C71.5198 92.856 71.5571 92.9467 71.5571 93.064V93.704C72.1545 92.9147 73.0078 92.52 74.1171 92.52C75.1945 92.52 76.0211 92.8613 76.5971 93.544C77.1731 94.216 77.4825 95.128 77.5251 96.28C77.5358 96.408 77.5411 96.5947 77.5411 96.84C77.5411 97.096 77.5358 97.288 77.5251 97.416C77.4825 98.536 77.1731 99.4427 76.5971 100.136C76.0211 100.819 75.1945 101.16 74.1171 101.16C73.0398 101.16 72.2185 100.781 71.6531 100.024V103.656C71.6531 103.773 71.6158 103.864 71.5411 103.928C71.4771 104.003 71.3865 104.04 71.2691 104.04H69.9091ZM73.5251 99.448C74.6771 99.448 75.2905 98.7387 75.3651 97.32C75.3758 97.2133 75.3811 97.0533 75.3811 96.84C75.3811 96.6267 75.3758 96.4667 75.3651 96.36C75.2905 94.9413 74.6771 94.232 73.5251 94.232C72.9065 94.232 72.4478 94.4293 72.1491 94.824C71.8505 95.2187 71.6851 95.704 71.6531 96.28L71.6371 96.888L71.6531 97.512C71.6745 98.0453 71.8398 98.504 72.1491 98.888C72.4691 99.2613 72.9278 99.448 73.5251 99.448ZM81.7533 101.16C81.2093 101.16 80.7079 101.053 80.2493 100.84C79.8013 100.616 79.4439 100.317 79.1773 99.944C78.9213 99.5707 78.7933 99.16 78.7933 98.712C78.7933 97.9867 79.0866 97.4 79.6733 96.952C80.2599 96.504 81.0653 96.2 82.0893 96.04L84.2813 95.72V95.384C84.2813 94.9147 84.1639 94.5627 83.9293 94.328C83.6946 94.0933 83.3159 93.976 82.7933 93.976C82.4413 93.976 82.1533 94.0453 81.9293 94.184C81.7159 94.312 81.5453 94.44 81.4173 94.568C81.2893 94.7067 81.2039 94.7973 81.1613 94.84C81.1186 94.968 81.0386 95.032 80.9213 95.032H79.6893C79.5933 95.032 79.5079 95 79.4333 94.936C79.3693 94.872 79.3372 94.7867 79.3372 94.68C79.3479 94.4133 79.4759 94.1093 79.7213 93.768C79.9773 93.4267 80.3666 93.1333 80.8893 92.888C81.4119 92.6427 82.0519 92.52 82.8093 92.52C84.0679 92.52 84.9853 92.8027 85.5613 93.368C86.1373 93.9333 86.4253 94.6747 86.4253 95.592V100.616C86.4253 100.723 86.3879 100.813 86.3133 100.888C86.2493 100.963 86.1586 101 86.0413 101H84.7453C84.6386 101 84.5479 100.963 84.4733 100.888C84.3986 100.813 84.3613 100.723 84.3613 100.616V99.992C84.1266 100.333 83.7906 100.616 83.3533 100.84C82.9266 101.053 82.3933 101.16 81.7533 101.16ZM82.2973 99.64C82.8839 99.64 83.3639 99.448 83.7373 99.064C84.1106 98.68 84.2973 98.12 84.2973 97.384V97.048L82.6973 97.304C82.0786 97.4 81.6093 97.5547 81.2893 97.768C80.9799 97.9813 80.8253 98.2427 80.8253 98.552C80.8253 98.8933 80.9693 99.16 81.2573 99.352C81.5453 99.544 81.8919 99.64 82.2973 99.64ZM92.2379 104.52C91.2885 104.52 90.5205 104.36 89.9339 104.04C89.3472 103.731 88.9312 103.373 88.6859 102.968C88.4405 102.563 88.3179 102.216 88.3179 101.928C88.3179 101.832 88.3552 101.747 88.4299 101.672C88.5152 101.597 88.6059 101.56 88.7019 101.56H90.0939C90.1899 101.56 90.2699 101.581 90.3339 101.624C90.4085 101.677 90.4672 101.768 90.5099 101.896C90.6165 102.184 90.7872 102.424 91.0219 102.616C91.2672 102.819 91.6459 102.92 92.1579 102.92C92.7979 102.92 93.2672 102.776 93.5659 102.488C93.8752 102.2 94.0299 101.704 94.0299 101V99.912C93.4432 100.605 92.6219 100.952 91.5659 100.952C90.4565 100.952 89.6192 100.611 89.0539 99.928C88.4992 99.2453 88.2005 98.328 88.1579 97.176L88.1419 96.744L88.1579 96.312C88.2005 95.1813 88.5045 94.2693 89.0699 93.576C89.6352 92.872 90.4672 92.52 91.5659 92.52C92.1312 92.52 92.6272 92.6267 93.0539 92.84C93.4805 93.0533 93.8379 93.3467 94.1259 93.72V93.08C94.1259 92.9627 94.1632 92.8667 94.2379 92.792C94.3125 92.7173 94.4032 92.68 94.5099 92.68H95.8059C95.9125 92.68 96.0032 92.7227 96.0779 92.808C96.1525 92.8827 96.1899 92.9733 96.1899 93.08L96.2059 100.792C96.2059 101.976 95.8752 102.893 95.2139 103.544C94.5525 104.195 93.5605 104.52 92.2379 104.52ZM92.1579 99.256C92.7659 99.256 93.2192 99.064 93.5179 98.68C93.8272 98.296 93.9979 97.8267 94.0299 97.272C94.0405 97.1867 94.0459 97.0107 94.0459 96.744C94.0459 96.488 94.0405 96.3173 94.0299 96.232C93.9979 95.6667 93.8272 95.192 93.5179 94.808C93.2192 94.424 92.7659 94.232 92.1579 94.232C91.0059 94.232 90.3979 94.9413 90.3339 96.36L90.3179 96.744C90.3179 97.5013 90.4512 98.1093 90.7179 98.568C90.9952 99.0267 91.4752 99.256 92.1579 99.256ZM101.921 101.16C100.737 101.16 99.7933 100.819 99.0893 100.136C98.3959 99.4427 98.0279 98.472 97.9853 97.224L97.9693 96.824L97.9853 96.424C98.0386 95.208 98.4119 94.2533 99.1053 93.56C99.8093 92.8667 100.748 92.52 101.921 92.52C103.18 92.52 104.151 92.904 104.833 93.672C105.527 94.44 105.873 95.464 105.873 96.744V97.08C105.873 97.1867 105.836 97.2773 105.761 97.352C105.687 97.4267 105.591 97.464 105.473 97.464H100.161V97.592C100.183 98.1787 100.343 98.6747 100.641 99.08C100.951 99.4747 101.372 99.672 101.905 99.672C102.535 99.672 103.041 99.4267 103.425 98.936C103.521 98.8187 103.596 98.744 103.649 98.712C103.713 98.68 103.804 98.664 103.921 98.664H105.297C105.393 98.664 105.473 98.696 105.537 98.76C105.612 98.8133 105.649 98.8827 105.649 98.968C105.649 99.224 105.495 99.528 105.185 99.88C104.887 100.221 104.455 100.52 103.889 100.776C103.324 101.032 102.668 101.16 101.921 101.16ZM103.697 96.12V96.072C103.697 95.4427 103.537 94.936 103.217 94.552C102.908 94.168 102.476 93.976 101.921 93.976C101.367 93.976 100.935 94.168 100.625 94.552C100.316 94.936 100.161 95.4427 100.161 96.072V96.12H103.697Z" fill="#171E3C"/>
<path id="10 Tasks" d="M23.036 116C22.9627 116 22.9003 115.978 22.849 115.934C22.805 115.883 22.783 115.82 22.783 115.747V109.587L20.957 110.995C20.9057 111.039 20.8507 111.061 20.792 111.061C20.726 111.061 20.6637 111.024 20.605 110.951L20.319 110.588C20.2823 110.537 20.264 110.485 20.264 110.434C20.264 110.346 20.3007 110.276 20.374 110.225L22.772 108.377C22.8527 108.326 22.948 108.3 23.058 108.3H23.619C23.6923 108.3 23.751 108.326 23.795 108.377C23.8463 108.421 23.872 108.48 23.872 108.553V115.747C23.872 115.82 23.8463 115.883 23.795 115.934C23.751 115.978 23.6923 116 23.619 116H23.036ZM28.1921 116.11C27.2461 116.11 26.5531 115.835 26.1131 115.285C25.6731 114.735 25.4384 114.013 25.4091 113.118C25.4017 112.92 25.3981 112.601 25.3981 112.161C25.3981 111.706 25.4017 111.376 25.4091 111.171C25.4311 110.291 25.6657 109.576 26.1131 109.026C26.5604 108.469 27.2534 108.19 28.1921 108.19C29.1381 108.19 29.8347 108.469 30.2821 109.026C30.7294 109.576 30.9641 110.291 30.9861 111.171C31.0007 111.582 31.0081 111.912 31.0081 112.161C31.0081 112.403 31.0007 112.722 30.9861 113.118C30.9567 114.013 30.7221 114.735 30.2821 115.285C29.8421 115.835 29.1454 116.11 28.1921 116.11ZM28.1921 115.164C28.7421 115.164 29.1564 114.981 29.4351 114.614C29.7211 114.247 29.8714 113.73 29.8861 113.063C29.9007 112.638 29.9081 112.33 29.9081 112.139C29.9081 111.934 29.9007 111.633 29.8861 111.237C29.8714 110.577 29.7247 110.06 29.4461 109.686C29.1674 109.312 28.7494 109.125 28.1921 109.125C27.6421 109.125 27.2241 109.312 26.9381 109.686C26.6594 110.06 26.5127 110.577 26.4981 111.237L26.4871 112.139L26.4981 113.063C26.5127 113.73 26.6594 114.247 26.9381 114.614C27.2241 114.981 27.6421 115.164 28.1921 115.164ZM36.9975 116C36.9242 116 36.8618 115.978 36.8105 115.934C36.7665 115.883 36.7445 115.82 36.7445 115.747V109.279H34.6325C34.5592 109.279 34.4968 109.257 34.4455 109.213C34.4015 109.162 34.3795 109.099 34.3795 109.026V108.564C34.3795 108.491 34.4015 108.428 34.4455 108.377C34.4968 108.326 34.5592 108.3 34.6325 108.3H39.9345C40.0152 108.3 40.0775 108.326 40.1215 108.377C40.1728 108.421 40.1985 108.483 40.1985 108.564V109.026C40.1985 109.099 40.1728 109.162 40.1215 109.213C40.0702 109.257 40.0078 109.279 39.9345 109.279H37.8335V115.747C37.8335 115.82 37.8078 115.883 37.7565 115.934C37.7052 115.978 37.6428 116 37.5695 116H36.9975ZM41.8738 116.11C41.5145 116.11 41.1808 116.037 40.8728 115.89C40.5648 115.743 40.3192 115.545 40.1358 115.296C39.9598 115.039 39.8718 114.757 39.8718 114.449C39.8718 113.965 40.0698 113.569 40.4658 113.261C40.8692 112.946 41.4118 112.74 42.0938 112.645L43.7328 112.414V112.095C43.7328 111.347 43.3038 110.973 42.4458 110.973C42.1232 110.973 41.8592 111.043 41.6538 111.182C41.4485 111.314 41.2945 111.472 41.1918 111.655C41.1698 111.721 41.1405 111.769 41.1038 111.798C41.0745 111.827 41.0305 111.842 40.9718 111.842H40.4988C40.4328 111.842 40.3742 111.82 40.3228 111.776C40.2788 111.725 40.2568 111.666 40.2568 111.6C40.2642 111.424 40.3448 111.226 40.4988 111.006C40.6602 110.779 40.9058 110.584 41.2358 110.423C41.5658 110.254 41.9728 110.17 42.4568 110.17C43.2782 110.17 43.8685 110.364 44.2278 110.753C44.5872 111.134 44.7668 111.611 44.7668 112.183V115.747C44.7668 115.82 44.7412 115.883 44.6898 115.934C44.6458 115.978 44.5872 116 44.5138 116H44.0078C43.9345 116 43.8722 115.978 43.8208 115.934C43.7768 115.883 43.7548 115.82 43.7548 115.747V115.274C43.5935 115.509 43.3588 115.707 43.0508 115.868C42.7428 116.029 42.3505 116.11 41.8738 116.11ZM42.1048 115.285C42.5815 115.285 42.9702 115.131 43.2708 114.823C43.5788 114.508 43.7328 114.057 43.7328 113.47V113.162L42.4568 113.349C41.9362 113.422 41.5438 113.547 41.2798 113.723C41.0158 113.892 40.8838 114.108 40.8838 114.372C40.8838 114.665 41.0048 114.893 41.2468 115.054C41.4888 115.208 41.7748 115.285 42.1048 115.285ZM48.3282 116.11C47.8148 116.11 47.3822 116.029 47.0302 115.868C46.6855 115.699 46.4252 115.509 46.2492 115.296C46.0805 115.083 45.9962 114.907 45.9962 114.768C45.9962 114.695 46.0218 114.64 46.0732 114.603C46.1318 114.559 46.1905 114.537 46.2492 114.537H46.7442C46.8175 114.537 46.8835 114.574 46.9422 114.647C47.1182 114.852 47.3088 115.014 47.5142 115.131C47.7195 115.248 47.9945 115.307 48.3392 115.307C48.7205 115.307 49.0285 115.234 49.2632 115.087C49.5052 114.933 49.6262 114.724 49.6262 114.46C49.6262 114.284 49.5748 114.141 49.4722 114.031C49.3768 113.914 49.2082 113.815 48.9662 113.734C48.7315 113.646 48.3795 113.551 47.9102 113.448C47.2722 113.309 46.8175 113.107 46.5462 112.843C46.2822 112.579 46.1502 112.238 46.1502 111.82C46.1502 111.541 46.2308 111.277 46.3922 111.028C46.5608 110.771 46.8028 110.566 47.1182 110.412C47.4408 110.251 47.8258 110.17 48.2732 110.17C48.7425 110.17 49.1422 110.247 49.4722 110.401C49.8022 110.555 50.0478 110.738 50.2092 110.951C50.3778 111.156 50.4622 111.329 50.4622 111.468C50.4622 111.534 50.4365 111.589 50.3852 111.633C50.3412 111.677 50.2862 111.699 50.2202 111.699H49.7582C49.6702 111.699 49.5968 111.662 49.5382 111.589C49.4208 111.45 49.3182 111.343 49.2302 111.27C49.1495 111.189 49.0285 111.12 48.8672 111.061C48.7132 111.002 48.5152 110.973 48.2732 110.973C47.9212 110.973 47.6498 111.05 47.4592 111.204C47.2685 111.351 47.1732 111.545 47.1732 111.787C47.1732 111.941 47.2135 112.073 47.2942 112.183C47.3748 112.286 47.5288 112.381 47.7562 112.469C47.9908 112.557 48.3282 112.649 48.7682 112.744C49.4648 112.891 49.9562 113.103 50.2422 113.382C50.5355 113.653 50.6822 114.002 50.6822 114.427C50.6822 114.742 50.5905 115.028 50.4072 115.285C50.2238 115.542 49.9525 115.743 49.5932 115.89C49.2412 116.037 48.8195 116.11 48.3282 116.11ZM52.2196 116C52.1463 116 52.0839 115.978 52.0326 115.934C51.9886 115.883 51.9666 115.82 51.9666 115.747V108.443C51.9666 108.37 51.9886 108.311 52.0326 108.267C52.0839 108.216 52.1463 108.19 52.2196 108.19H52.7366C52.8099 108.19 52.8686 108.216 52.9126 108.267C52.9639 108.311 52.9896 108.37 52.9896 108.443V112.271L55.1566 110.467C55.1786 110.452 55.2153 110.423 55.2666 110.379C55.3179 110.342 55.3656 110.317 55.4096 110.302C55.4609 110.287 55.5233 110.28 55.5966 110.28H56.1796C56.2456 110.28 56.3006 110.302 56.3446 110.346C56.3886 110.39 56.4106 110.445 56.4106 110.511C56.4106 110.592 56.3666 110.661 56.2786 110.72L53.7376 112.832L56.5536 115.571C56.6416 115.644 56.6856 115.71 56.6856 115.769C56.6856 115.835 56.6636 115.89 56.6196 115.934C56.5756 115.978 56.5206 116 56.4546 116H55.8826C55.7726 116 55.6919 115.989 55.6406 115.967C55.5966 115.945 55.5306 115.894 55.4426 115.813L52.9896 113.47V115.747C52.9896 115.82 52.9639 115.883 52.9126 115.934C52.8686 115.978 52.8099 116 52.7366 116H52.2196ZM59.5001 116.11C58.9867 116.11 58.5541 116.029 58.2021 115.868C57.8574 115.699 57.5971 115.509 57.4211 115.296C57.2524 115.083 57.1681 114.907 57.1681 114.768C57.1681 114.695 57.1937 114.64 57.2451 114.603C57.3037 114.559 57.3624 114.537 57.4211 114.537H57.9161C57.9894 114.537 58.0554 114.574 58.1141 114.647C58.2901 114.852 58.4807 115.014 58.6861 115.131C58.8914 115.248 59.1664 115.307 59.5111 115.307C59.8924 115.307 60.2004 115.234 60.4351 115.087C60.6771 114.933 60.7981 114.724 60.7981 114.46C60.7981 114.284 60.7467 114.141 60.6441 114.031C60.5487 113.914 60.3801 113.815 60.1381 113.734C59.9034 113.646 59.5514 113.551 59.0821 113.448C58.4441 113.309 57.9894 113.107 57.7181 112.843C57.4541 112.579 57.3221 112.238 57.3221 111.82C57.3221 111.541 57.4027 111.277 57.5641 111.028C57.7327 110.771 57.9747 110.566 58.2901 110.412C58.6127 110.251 58.9977 110.17 59.4451 110.17C59.9144 110.17 60.3141 110.247 60.6441 110.401C60.9741 110.555 61.2197 110.738 61.3811 110.951C61.5497 111.156 61.6341 111.329 61.6341 111.468C61.6341 111.534 61.6084 111.589 61.5571 111.633C61.5131 111.677 61.4581 111.699 61.3921 111.699H60.9301C60.8421 111.699 60.7687 111.662 60.7101 111.589C60.5927 111.45 60.4901 111.343 60.4021 111.27C60.3214 111.189 60.2004 111.12 60.0391 111.061C59.8851 111.002 59.6871 110.973 59.4451 110.973C59.0931 110.973 58.8217 111.05 58.6311 111.204C58.4404 111.351 58.3451 111.545 58.3451 111.787C58.3451 111.941 58.3854 112.073 58.4661 112.183C58.5467 112.286 58.7007 112.381 58.9281 112.469C59.1627 112.557 59.5001 112.649 59.9401 112.744C60.6367 112.891 61.1281 113.103 61.4141 113.382C61.7074 113.653 61.8541 114.002 61.8541 114.427C61.8541 114.742 61.7624 115.028 61.5791 115.285C61.3957 115.542 61.1244 115.743 60.7651 115.89C60.4131 116.037 59.9914 116.11 59.5001 116.11Z" fill="#75798C"/>
<g id="Icon/Outline/clipboard-check">
<path id="Icon" d="M30.0823 43.8762C29.6917 43.4857 29.0586 43.4857 28.6681 43.8762C28.2775 44.2668 28.2775 44.8999 28.6681 45.2904L30.0823 43.8762ZM33.4585 48.6667L32.7514 49.3738C33.1419 49.7643 33.7751 49.7643 34.1656 49.3738L33.4585 48.6667ZM42.3323 41.2071C42.7228 40.8166 42.7228 40.1834 42.3323 39.7929C41.9417 39.4024 41.3086 39.4024 40.9181 39.7929L42.3323 41.2071ZM48.7918 30.2917V54.7917H50.7918V30.2917H48.7918ZM45.7085 57.875H25.2918V59.875H45.7085V57.875ZM22.2085 54.7917V30.2917H20.2085V54.7917H22.2085ZM25.2918 27.2083H29.3752V25.2083H25.2918V27.2083ZM41.6252 27.2083H45.7085V25.2083H41.6252V27.2083ZM25.2918 57.875C23.589 57.875 22.2085 56.4945 22.2085 54.7917H20.2085C20.2085 57.5991 22.4844 59.875 25.2918 59.875V57.875ZM48.7918 54.7917C48.7918 56.4945 47.4114 57.875 45.7085 57.875V59.875C48.5159 59.875 50.7918 57.5991 50.7918 54.7917H48.7918ZM50.7918 30.2917C50.7918 27.4842 48.5159 25.2083 45.7085 25.2083V27.2083C47.4114 27.2083 48.7918 28.5888 48.7918 30.2917H50.7918ZM22.2085 30.2917C22.2085 28.5888 23.589 27.2083 25.2918 27.2083V25.2083C22.4844 25.2083 20.2085 27.4842 20.2085 30.2917H22.2085ZM28.6681 45.2904L32.7514 49.3738L34.1656 47.9596L30.0823 43.8762L28.6681 45.2904ZM34.1656 49.3738L42.3323 41.2071L40.9181 39.7929L32.7514 47.9596L34.1656 49.3738ZM33.4585 23.125H37.5418V21.125H33.4585V23.125ZM37.5418 29.2917H33.4585V31.2917H37.5418V29.2917ZM33.4585 29.2917C31.7556 29.2917 30.3752 27.9112 30.3752 26.2083H28.3752C28.3752 29.0158 30.651 31.2917 33.4585 31.2917V29.2917ZM40.6252 26.2083C40.6252 27.9112 39.2447 29.2917 37.5418 29.2917V31.2917C40.3493 31.2917 42.6252 29.0158 42.6252 26.2083H40.6252ZM37.5418 23.125C39.2447 23.125 40.6252 24.5055 40.6252 26.2083H42.6252C42.6252 23.4009 40.3493 21.125 37.5418 21.125V23.125ZM33.4585 21.125C30.651 21.125 28.3752 23.4009 28.3752 26.2083H30.3752C30.3752 24.5055 31.7556 23.125 33.4585 23.125V21.125Z" fill="#4A4FFF"/>
</g>
</g>
</svg>
