<svg width="236" height="165" viewBox="0 0 236 165" fill="none" xmlns="http://www.w3.org/2000/svg">
<g id="workspace">
<rect id="Rectangle 38" width="236" height="165" rx="15" fill="#E6E8EA"/>
<path id="Workspace" d="M23.28 34C23.0027 34 22.8373 33.856 22.784 33.568L20.72 23.296C20.7093 23.2427 20.704 23.184 20.704 23.12C20.704 23.0347 20.736 22.96 20.8 22.896C20.864 22.832 20.9387 22.8 21.024 22.8H21.856C22.08 22.8 22.208 22.8907 22.24 23.072L23.872 31.328L25.6 25.664C25.696 25.408 25.8667 25.28 26.112 25.28H26.704C26.8427 25.28 26.9493 25.3173 27.024 25.392C27.1093 25.4667 27.168 25.5573 27.2 25.664L28.944 31.328L30.56 23.072C30.592 22.8907 30.7253 22.8 30.96 22.8H31.792C31.8773 22.8 31.952 22.832 32.016 22.896C32.08 22.96 32.112 23.0347 32.112 23.12L32.096 23.296L30.032 33.568C29.968 33.856 29.8027 34 29.536 34H28.912C28.6347 34 28.4587 33.8667 28.384 33.6L26.4 27.504L24.432 33.6C24.3467 33.8667 24.1707 34 23.904 34H23.28ZM37.0608 34.16C35.8874 34.16 34.9754 33.8293 34.3248 33.168C33.6848 32.5067 33.3434 31.6267 33.3008 30.528L33.2848 29.84L33.3008 29.152C33.3434 28.064 33.6901 27.1893 34.3408 26.528C34.9914 25.856 35.8981 25.52 37.0608 25.52C38.2234 25.52 39.1301 25.856 39.7808 26.528C40.4314 27.1893 40.7781 28.064 40.8208 29.152C40.8314 29.2693 40.8368 29.4987 40.8368 29.84C40.8368 30.1813 40.8314 30.4107 40.8208 30.528C40.7781 31.6267 40.4314 32.5067 39.7808 33.168C39.1408 33.8293 38.2341 34.16 37.0608 34.16ZM37.0608 32.928C37.7328 32.928 38.2608 32.7147 38.6448 32.288C39.0394 31.8613 39.2528 31.248 39.2848 30.448C39.2954 30.3413 39.3008 30.1387 39.3008 29.84C39.3008 29.5413 39.2954 29.3387 39.2848 29.232C39.2528 28.432 39.0394 27.8187 38.6448 27.392C38.2608 26.9653 37.7328 26.752 37.0608 26.752C36.3888 26.752 35.8554 26.9653 35.4608 27.392C35.0661 27.8187 34.8581 28.432 34.8368 29.232L34.8207 29.84L34.8368 30.448C34.8581 31.248 35.0661 31.8613 35.4608 32.288C35.8554 32.7147 36.3888 32.928 37.0608 32.928ZM43.2083 34C43.1016 34 43.0109 33.968 42.9363 33.904C42.8723 33.8293 42.8403 33.7387 42.8403 33.632V26.064C42.8403 25.9573 42.8723 25.8667 42.9363 25.792C43.0109 25.7173 43.1016 25.68 43.2083 25.68H43.9443C44.0509 25.68 44.1416 25.7173 44.2163 25.792C44.2909 25.8667 44.3283 25.9573 44.3283 26.064V26.768C44.7656 26.0427 45.5123 25.68 46.5683 25.68H47.1923C47.2989 25.68 47.3843 25.7173 47.4483 25.792C47.5229 25.856 47.5603 25.9413 47.5603 26.048V26.704C47.5603 26.8107 47.5229 26.896 47.4483 26.96C47.3843 27.024 47.2989 27.056 47.1923 27.056H46.2323C45.6563 27.056 45.2029 27.2267 44.8723 27.568C44.5416 27.8987 44.3763 28.352 44.3763 28.928V33.632C44.3763 33.7387 44.3389 33.8293 44.2643 33.904C44.1896 33.968 44.0989 34 43.9923 34H43.2083ZM49.3024 34C49.1957 34 49.105 33.968 49.0304 33.904C48.9664 33.8293 48.9344 33.7387 48.9344 33.632V23.008C48.9344 22.9013 48.9664 22.816 49.0304 22.752C49.105 22.6773 49.1957 22.64 49.3024 22.64H50.0544C50.161 22.64 50.2464 22.6773 50.3104 22.752C50.385 22.816 50.4224 22.9013 50.4224 23.008V28.576L53.5744 25.952C53.6064 25.9307 53.6597 25.888 53.7344 25.824C53.809 25.7707 53.8784 25.7333 53.9424 25.712C54.017 25.6907 54.1077 25.68 54.2144 25.68H55.0624C55.1584 25.68 55.2384 25.712 55.3024 25.776C55.3664 25.84 55.3984 25.92 55.3984 26.016C55.3984 26.1333 55.3344 26.2347 55.2064 26.32L51.5104 29.392L55.6064 33.376C55.7344 33.4827 55.7984 33.5787 55.7984 33.664C55.7984 33.76 55.7664 33.84 55.7024 33.904C55.6384 33.968 55.5584 34 55.4624 34H54.6304C54.4704 34 54.353 33.984 54.2784 33.952C54.2144 33.92 54.1184 33.8453 53.9904 33.728L50.4224 30.32V33.632C50.4224 33.7387 50.385 33.8293 50.3104 33.904C50.2464 33.968 50.161 34 50.0544 34H49.3024ZM59.8921 34.16C59.1455 34.16 58.5161 34.0427 58.0041 33.808C57.5028 33.5627 57.1241 33.2853 56.8681 32.976C56.6228 32.6667 56.5001 32.4107 56.5001 32.208C56.5001 32.1013 56.5375 32.0213 56.6121 31.968C56.6975 31.904 56.7828 31.872 56.8681 31.872H57.5881C57.6948 31.872 57.7908 31.9253 57.8761 32.032C58.1321 32.3307 58.4095 32.5653 58.7081 32.736C59.0068 32.9067 59.4068 32.992 59.9081 32.992C60.4628 32.992 60.9108 32.8853 61.2521 32.672C61.6041 32.448 61.7801 32.144 61.7801 31.76C61.7801 31.504 61.7055 31.296 61.5561 31.136C61.4175 30.9653 61.1721 30.8213 60.8201 30.704C60.4788 30.576 59.9668 30.4373 59.2841 30.288C58.3561 30.0853 57.6948 29.792 57.3001 29.408C56.9161 29.024 56.7241 28.528 56.7241 27.92C56.7241 27.5147 56.8415 27.1307 57.0761 26.768C57.3215 26.3947 57.6735 26.096 58.1321 25.872C58.6015 25.6373 59.1615 25.52 59.8121 25.52C60.4948 25.52 61.0761 25.632 61.5561 25.856C62.0361 26.08 62.3935 26.3467 62.6281 26.656C62.8735 26.9547 62.9961 27.2053 62.9961 27.408C62.9961 27.504 62.9588 27.584 62.8841 27.648C62.8201 27.712 62.7401 27.744 62.6441 27.744H61.9721C61.8441 27.744 61.7375 27.6907 61.6521 27.584C61.4815 27.3813 61.3321 27.2267 61.2041 27.12C61.0868 27.0027 60.9108 26.9013 60.6761 26.816C60.4521 26.7307 60.1641 26.688 59.8121 26.688C59.3001 26.688 58.9055 26.8 58.6281 27.024C58.3508 27.2373 58.2121 27.52 58.2121 27.872C58.2121 28.096 58.2708 28.288 58.3881 28.448C58.5055 28.5973 58.7295 28.736 59.0601 28.864C59.4015 28.992 59.8921 29.1253 60.5321 29.264C61.5455 29.4773 62.2601 29.7867 62.6761 30.192C63.1028 30.5867 63.3161 31.0933 63.3161 31.712C63.3161 32.1707 63.1828 32.5867 62.9161 32.96C62.6495 33.3333 62.2548 33.6267 61.7321 33.84C61.2201 34.0533 60.6068 34.16 59.8921 34.16ZM65.5524 37.04C65.4457 37.04 65.355 37.0027 65.2804 36.928C65.2164 36.864 65.1844 36.7787 65.1844 36.672V26.048C65.1844 25.9413 65.2164 25.856 65.2804 25.792C65.355 25.7173 65.4457 25.68 65.5524 25.68H66.2884C66.395 25.68 66.4804 25.7173 66.5444 25.792C66.619 25.856 66.6564 25.9413 66.6564 26.048V26.752C67.2537 25.9307 68.1284 25.52 69.2804 25.52C70.4004 25.52 71.2377 25.872 71.7924 26.576C72.3577 27.28 72.6617 28.1867 72.7044 29.296C72.715 29.4133 72.7204 29.5947 72.7204 29.84C72.7204 30.0853 72.715 30.2667 72.7044 30.384C72.6617 31.4827 72.3577 32.3893 71.7924 33.104C71.227 33.808 70.3897 34.16 69.2804 34.16C68.171 34.16 67.307 33.76 66.6884 32.96V36.672C66.6884 36.7787 66.6564 36.864 66.5924 36.928C66.5284 37.0027 66.443 37.04 66.3364 37.04H65.5524ZM68.9444 32.864C69.7017 32.864 70.251 32.6293 70.5924 32.16C70.9444 31.6907 71.1364 31.072 71.1684 30.304C71.179 30.1973 71.1844 30.0427 71.1844 29.84C71.1844 27.824 70.4377 26.816 68.9444 26.816C68.2084 26.816 67.6537 27.0613 67.2804 27.552C66.9177 28.032 66.7204 28.608 66.6884 29.28L66.6724 29.888L66.6884 30.512C66.7097 31.1413 66.9124 31.6907 67.2964 32.16C67.6804 32.6293 68.2297 32.864 68.9444 32.864ZM77.0196 34.16C76.497 34.16 76.0116 34.0533 75.5636 33.84C75.1156 33.6267 74.7583 33.3387 74.4916 32.976C74.2356 32.6027 74.1076 32.192 74.1076 31.744C74.1076 31.04 74.3956 30.464 74.9716 30.016C75.5583 29.5573 76.3476 29.2587 77.3396 29.12L79.7236 28.784V28.32C79.7236 27.232 79.0996 26.688 77.8516 26.688C77.3823 26.688 76.9983 26.7893 76.6996 26.992C76.401 27.184 76.177 27.4133 76.0276 27.68C75.9956 27.776 75.953 27.8453 75.8996 27.888C75.857 27.9307 75.793 27.952 75.7076 27.952H75.0196C74.9236 27.952 74.8383 27.92 74.7636 27.856C74.6996 27.7813 74.6676 27.696 74.6676 27.6C74.6783 27.344 74.7956 27.056 75.0196 26.736C75.2543 26.4053 75.6116 26.1227 76.0916 25.888C76.5716 25.6427 77.1636 25.52 77.8676 25.52C79.0623 25.52 79.921 25.8027 80.4436 26.368C80.9663 26.9227 81.2276 27.616 81.2276 28.448V33.632C81.2276 33.7387 81.1903 33.8293 81.1156 33.904C81.0516 33.968 80.9663 34 80.8596 34H80.1236C80.017 34 79.9263 33.968 79.8516 33.904C79.7876 33.8293 79.7556 33.7387 79.7556 33.632V32.944C79.521 33.2853 79.1796 33.5733 78.7316 33.808C78.2836 34.0427 77.713 34.16 77.0196 34.16ZM77.3556 32.96C78.049 32.96 78.6143 32.736 79.0516 32.288C79.4996 31.8293 79.7236 31.1733 79.7236 30.32V29.872L77.8676 30.144C77.1103 30.2507 76.5396 30.432 76.1556 30.688C75.7716 30.9333 75.5796 31.248 75.5796 31.632C75.5796 32.0587 75.7556 32.3893 76.1076 32.624C76.4596 32.848 76.8756 32.96 77.3556 32.96ZM86.8878 34.16C85.7464 34.16 84.8504 33.84 84.1998 33.2C83.5598 32.5493 83.2184 31.6427 83.1758 30.48L83.1598 29.84L83.1758 29.2C83.2184 28.0373 83.5598 27.136 84.1998 26.496C84.8504 25.8453 85.7464 25.52 86.8878 25.52C87.6558 25.52 88.3064 25.6587 88.8398 25.936C89.3731 26.2133 89.7678 26.5547 90.0238 26.96C90.2904 27.3653 90.4344 27.7707 90.4558 28.176C90.4664 28.2827 90.4344 28.368 90.3598 28.432C90.2851 28.496 90.1944 28.528 90.0878 28.528H89.3198C89.2131 28.528 89.1331 28.5067 89.0798 28.464C89.0264 28.4213 88.9731 28.336 88.9198 28.208C88.7384 27.696 88.4824 27.3333 88.1518 27.12C87.8211 26.896 87.4051 26.784 86.9038 26.784C86.2424 26.784 85.7144 26.992 85.3198 27.408C84.9358 27.8133 84.7278 28.4373 84.6957 29.28L84.6798 29.856L84.6957 30.4C84.7278 31.2533 84.9358 31.8827 85.3198 32.288C85.7038 32.6933 86.2318 32.896 86.9038 32.896C87.4051 32.896 87.8211 32.7893 88.1518 32.576C88.4824 32.352 88.7384 31.984 88.9198 31.472C88.9731 31.344 89.0264 31.2587 89.0798 31.216C89.1331 31.1627 89.2131 31.136 89.3198 31.136H90.0878C90.1944 31.136 90.2851 31.1733 90.3598 31.248C90.4344 31.312 90.4664 31.3973 90.4558 31.504C90.4344 31.8987 90.2904 32.304 90.0238 32.72C89.7678 33.1253 89.3731 33.4667 88.8398 33.744C88.3171 34.0213 87.6664 34.16 86.8878 34.16ZM95.6839 34.16C94.5852 34.16 93.7052 33.824 93.0439 33.152C92.3932 32.4693 92.0359 31.5413 91.9719 30.368L91.9559 29.824L91.9719 29.296C92.0465 28.144 92.4092 27.2267 93.0599 26.544C93.7212 25.8613 94.5905 25.52 95.6679 25.52C96.8519 25.52 97.7692 25.8987 98.4199 26.656C99.0705 27.4027 99.3959 28.416 99.3959 29.696V29.968C99.3959 30.0747 99.3585 30.1653 99.2839 30.24C99.2199 30.304 99.1345 30.336 99.0279 30.336H93.4919V30.48C93.5239 31.1733 93.7319 31.7653 94.1159 32.256C94.5105 32.736 95.0279 32.976 95.6679 32.976C96.1585 32.976 96.5585 32.88 96.8679 32.688C97.1879 32.4853 97.4225 32.2773 97.5719 32.064C97.6679 31.936 97.7372 31.8613 97.7799 31.84C97.8332 31.808 97.9239 31.792 98.0519 31.792H98.8359C98.9319 31.792 99.0119 31.8187 99.0759 31.872C99.1399 31.9253 99.1719 32 99.1719 32.096C99.1719 32.3307 99.0225 32.6133 98.7239 32.944C98.4359 33.2747 98.0252 33.5627 97.4919 33.808C96.9692 34.0427 96.3665 34.16 95.6839 34.16ZM97.8759 29.232V29.184C97.8759 28.448 97.6732 27.8507 97.2679 27.392C96.8732 26.9227 96.3399 26.688 95.6679 26.688C94.9959 26.688 94.4625 26.9227 94.0679 27.392C93.6839 27.8507 93.4919 28.448 93.4919 29.184V29.232H97.8759Z" fill="#171E3C"/>
<g id="Group 9">
<rect id="Rectangle 39" x="20" y="51" width="195" height="34" rx="5" fill="#D0D1D8"/>
<g id="Icon/Outline/cheveron-down">
<path id="Icon" d="M201 65L194 72L187 65" stroke="#4A4FFF" stroke-width="2" stroke-linecap="round" stroke-linejoin="round"/>
</g>
<path id="Project 007" d="M31.76 74C31.6533 74 31.5627 73.968 31.488 73.904C31.424 73.8293 31.392 73.7387 31.392 73.632V63.184C31.392 63.0667 31.424 62.976 31.488 62.912C31.5627 62.8373 31.6533 62.8 31.76 62.8H35.824C37.0293 62.8 37.9787 63.0933 38.672 63.68C39.3653 64.2667 39.712 65.1147 39.712 66.224C39.712 67.3333 39.3653 68.1813 38.672 68.768C37.9893 69.344 37.04 69.632 35.824 69.632H32.992V73.632C32.992 73.7387 32.9547 73.8293 32.88 73.904C32.8053 73.968 32.7147 74 32.608 74H31.76ZM35.744 68.288C36.5227 68.288 37.1093 68.112 37.504 67.76C37.9093 67.408 38.112 66.896 38.112 66.224C38.112 65.552 37.9147 65.04 37.52 64.688C37.1253 64.3253 36.5333 64.144 35.744 64.144H32.976V68.288H35.744ZM41.8176 74C41.711 74 41.6203 73.968 41.5456 73.904C41.4816 73.8293 41.4496 73.7387 41.4496 73.632V66.064C41.4496 65.9573 41.4816 65.8667 41.5456 65.792C41.6203 65.7173 41.711 65.68 41.8176 65.68H42.5536C42.6603 65.68 42.751 65.7173 42.8256 65.792C42.9003 65.8667 42.9376 65.9573 42.9376 66.064V66.768C43.375 66.0427 44.1216 65.68 45.1776 65.68H45.8016C45.9083 65.68 45.9936 65.7173 46.0576 65.792C46.1323 65.856 46.1696 65.9413 46.1696 66.048V66.704C46.1696 66.8107 46.1323 66.896 46.0576 66.96C45.9936 67.024 45.9083 67.056 45.8016 67.056H44.8416C44.2656 67.056 43.8123 67.2267 43.4816 67.568C43.151 67.8987 42.9856 68.352 42.9856 68.928V73.632C42.9856 73.7387 42.9483 73.8293 42.8736 73.904C42.799 73.968 42.7083 74 42.6016 74H41.8176ZM50.7795 74.16C49.6062 74.16 48.6942 73.8293 48.0435 73.168C47.4035 72.5067 47.0622 71.6267 47.0195 70.528L47.0035 69.84L47.0195 69.152C47.0622 68.064 47.4088 67.1893 48.0595 66.528C48.7102 65.856 49.6168 65.52 50.7795 65.52C51.9422 65.52 52.8488 65.856 53.4995 66.528C54.1502 67.1893 54.4968 68.064 54.5395 69.152C54.5502 69.2693 54.5555 69.4987 54.5555 69.84C54.5555 70.1813 54.5502 70.4107 54.5395 70.528C54.4968 71.6267 54.1502 72.5067 53.4995 73.168C52.8595 73.8293 51.9528 74.16 50.7795 74.16ZM50.7795 72.928C51.4515 72.928 51.9795 72.7147 52.3635 72.288C52.7582 71.8613 52.9715 71.248 53.0035 70.448C53.0142 70.3413 53.0195 70.1387 53.0195 69.84C53.0195 69.5413 53.0142 69.3387 53.0035 69.232C52.9715 68.432 52.7582 67.8187 52.3635 67.392C51.9795 66.9653 51.4515 66.752 50.7795 66.752C50.1075 66.752 49.5742 66.9653 49.1795 67.392C48.7848 67.8187 48.5768 68.432 48.5555 69.232L48.5395 69.84L48.5555 70.448C48.5768 71.248 48.7848 71.8613 49.1795 72.288C49.5742 72.7147 50.1075 72.928 50.7795 72.928ZM56.959 64.128C56.8523 64.128 56.7617 64.096 56.687 64.032C56.623 63.9573 56.591 63.8667 56.591 63.76V62.896C56.591 62.7893 56.623 62.6987 56.687 62.624C56.7617 62.5493 56.8523 62.512 56.959 62.512H57.983C58.0897 62.512 58.1803 62.5493 58.255 62.624C58.3297 62.6987 58.367 62.7893 58.367 62.896V63.76C58.367 63.8667 58.3297 63.9573 58.255 64.032C58.1803 64.096 58.0897 64.128 57.983 64.128H56.959ZM55.199 77.04C55.0923 77.04 55.007 77.0027 54.943 76.928C54.8683 76.864 54.831 76.7787 54.831 76.672V76.128C54.831 76.0213 54.8683 75.9307 54.943 75.856C55.007 75.792 55.0923 75.76 55.199 75.76H55.423C55.9457 75.76 56.2923 75.6267 56.463 75.36C56.6337 75.0933 56.719 74.6987 56.719 74.176V66.048C56.719 65.9413 56.751 65.856 56.815 65.792C56.8897 65.7173 56.9803 65.68 57.087 65.68H57.871C57.9777 65.68 58.063 65.7173 58.127 65.792C58.2017 65.856 58.239 65.9413 58.239 66.048V74.192C58.239 76.0907 57.327 77.04 55.503 77.04H55.199ZM63.9495 74.16C62.8508 74.16 61.9708 73.824 61.3095 73.152C60.6588 72.4693 60.3015 71.5413 60.2375 70.368L60.2215 69.824L60.2375 69.296C60.3122 68.144 60.6748 67.2267 61.3255 66.544C61.9868 65.8613 62.8562 65.52 63.9335 65.52C65.1175 65.52 66.0348 65.8987 66.6855 66.656C67.3362 67.4027 67.6615 68.416 67.6615 69.696V69.968C67.6615 70.0747 67.6242 70.1653 67.5495 70.24C67.4855 70.304 67.4002 70.336 67.2935 70.336H61.7575V70.48C61.7895 71.1733 61.9975 71.7653 62.3815 72.256C62.7762 72.736 63.2935 72.976 63.9335 72.976C64.4242 72.976 64.8242 72.88 65.1335 72.688C65.4535 72.4853 65.6882 72.2773 65.8375 72.064C65.9335 71.936 66.0028 71.8613 66.0455 71.84C66.0988 71.808 66.1895 71.792 66.3175 71.792H67.1015C67.1975 71.792 67.2775 71.8187 67.3415 71.872C67.4055 71.9253 67.4375 72 67.4375 72.096C67.4375 72.3307 67.2882 72.6133 66.9895 72.944C66.7015 73.2747 66.2908 73.5627 65.7575 73.808C65.2348 74.0427 64.6322 74.16 63.9495 74.16ZM66.1415 69.232V69.184C66.1415 68.448 65.9388 67.8507 65.5335 67.392C65.1388 66.9227 64.6055 66.688 63.9335 66.688C63.2615 66.688 62.7282 66.9227 62.3335 67.392C61.9495 67.8507 61.7575 68.448 61.7575 69.184V69.232H66.1415ZM72.9346 74.16C71.7933 74.16 70.8973 73.84 70.2466 73.2C69.6066 72.5493 69.2653 71.6427 69.2226 70.48L69.2066 69.84L69.2226 69.2C69.2653 68.0373 69.6066 67.136 70.2466 66.496C70.8973 65.8453 71.7933 65.52 72.9346 65.52C73.7026 65.52 74.3533 65.6587 74.8866 65.936C75.42 66.2133 75.8146 66.5547 76.0706 66.96C76.3373 67.3653 76.4813 67.7707 76.5026 68.176C76.5133 68.2827 76.4813 68.368 76.4066 68.432C76.332 68.496 76.2413 68.528 76.1346 68.528H75.3666C75.26 68.528 75.18 68.5067 75.1266 68.464C75.0733 68.4213 75.02 68.336 74.9666 68.208C74.7853 67.696 74.5293 67.3333 74.1986 67.12C73.868 66.896 73.452 66.784 72.9506 66.784C72.2893 66.784 71.7613 66.992 71.3666 67.408C70.9826 67.8133 70.7746 68.4373 70.7426 69.28L70.7266 69.856L70.7426 70.4C70.7746 71.2533 70.9826 71.8827 71.3666 72.288C71.7506 72.6933 72.2786 72.896 72.9506 72.896C73.452 72.896 73.868 72.7893 74.1986 72.576C74.5293 72.352 74.7853 71.984 74.9666 71.472C75.02 71.344 75.0733 71.2587 75.1266 71.216C75.18 71.1627 75.26 71.136 75.3666 71.136H76.1346C76.2413 71.136 76.332 71.1733 76.4066 71.248C76.4813 71.312 76.5133 71.3973 76.5026 71.504C76.4813 71.8987 76.3373 72.304 76.0706 72.72C75.8146 73.1253 75.42 73.4667 74.8866 73.744C74.364 74.0213 73.7133 74.16 72.9346 74.16ZM81.6508 74C79.9654 74 79.1228 73.0613 79.1228 71.184V66.96H77.8748C77.7681 66.96 77.6774 66.928 77.6028 66.864C77.5388 66.7893 77.5068 66.6987 77.5068 66.592V66.048C77.5068 65.9413 77.5388 65.856 77.6028 65.792C77.6774 65.7173 77.7681 65.68 77.8748 65.68H79.1228V63.008C79.1228 62.9013 79.1548 62.816 79.2188 62.752C79.2934 62.6773 79.3841 62.64 79.4908 62.64H80.2428C80.3494 62.64 80.4348 62.6773 80.4988 62.752C80.5734 62.816 80.6108 62.9013 80.6108 63.008V65.68H82.5948C82.7014 65.68 82.7868 65.7173 82.8508 65.792C82.9254 65.856 82.9628 65.9413 82.9628 66.048V66.592C82.9628 66.6987 82.9254 66.7893 82.8508 66.864C82.7868 66.928 82.7014 66.96 82.5948 66.96H80.6108V71.072C80.6108 71.6053 80.7014 72.0107 80.8828 72.288C81.0641 72.5547 81.3628 72.688 81.7788 72.688H82.7548C82.8614 72.688 82.9468 72.7253 83.0108 72.8C83.0854 72.864 83.1228 72.9493 83.1228 73.056V73.632C83.1228 73.7387 83.0854 73.8293 83.0108 73.904C82.9468 73.968 82.8614 74 82.7548 74H81.6508ZM92.4626 74.16C91.0866 74.16 90.0786 73.76 89.4386 72.96C88.7986 72.16 88.4573 71.1093 88.4146 69.808C88.404 69.52 88.3986 69.056 88.3986 68.416C88.3986 67.7547 88.404 67.2747 88.4146 66.976C88.4466 65.696 88.788 64.656 89.4386 63.856C90.0893 63.0453 91.0973 62.64 92.4626 62.64C93.8386 62.64 94.852 63.0453 95.5026 63.856C96.1533 64.656 96.4946 65.696 96.5266 66.976C96.548 67.5733 96.5586 68.0533 96.5586 68.416C96.5586 68.768 96.548 69.232 96.5266 69.808C96.484 71.1093 96.1426 72.16 95.5026 72.96C94.8626 73.76 93.8493 74.16 92.4626 74.16ZM92.4626 72.784C93.2626 72.784 93.8653 72.5173 94.2706 71.984C94.6866 71.4507 94.9053 70.6987 94.9266 69.728C94.948 69.1093 94.9586 68.6613 94.9586 68.384C94.9586 68.0853 94.948 67.648 94.9266 67.072C94.9053 66.112 94.692 65.36 94.2866 64.816C93.8813 64.272 93.2733 64 92.4626 64C91.6626 64 91.0546 64.272 90.6386 64.816C90.2333 65.36 90.02 66.112 89.9986 67.072L89.9826 68.384L89.9986 69.728C90.02 70.6987 90.2333 71.4507 90.6386 71.984C91.0546 72.5173 91.6626 72.784 92.4626 72.784ZM102.619 74.16C101.243 74.16 100.235 73.76 99.5949 72.96C98.9549 72.16 98.6135 71.1093 98.5709 69.808C98.5602 69.52 98.5549 69.056 98.5549 68.416C98.5549 67.7547 98.5602 67.2747 98.5709 66.976C98.6029 65.696 98.9442 64.656 99.5949 63.856C100.246 63.0453 101.254 62.64 102.619 62.64C103.995 62.64 105.008 63.0453 105.659 63.856C106.31 64.656 106.651 65.696 106.683 66.976C106.704 67.5733 106.715 68.0533 106.715 68.416C106.715 68.768 106.704 69.232 106.683 69.808C106.64 71.1093 106.299 72.16 105.659 72.96C105.019 73.76 104.006 74.16 102.619 74.16ZM102.619 72.784C103.419 72.784 104.022 72.5173 104.427 71.984C104.843 71.4507 105.062 70.6987 105.083 69.728C105.104 69.1093 105.115 68.6613 105.115 68.384C105.115 68.0853 105.104 67.648 105.083 67.072C105.062 66.112 104.848 65.36 104.443 64.816C104.038 64.272 103.43 64 102.619 64C101.819 64 101.211 64.272 100.795 64.816C100.39 65.36 100.176 66.112 100.155 67.072L100.139 68.384L100.155 69.728C100.176 70.6987 100.39 71.4507 100.795 71.984C101.211 72.5173 101.819 72.784 102.619 72.784ZM110.087 74C109.991 74 109.911 73.968 109.847 73.904C109.794 73.8293 109.767 73.744 109.767 73.648L109.799 73.504L113.783 64.192H108.535C108.428 64.192 108.338 64.16 108.263 64.096C108.199 64.0213 108.167 63.9307 108.167 63.824V63.184C108.167 63.0667 108.199 62.976 108.263 62.912C108.338 62.8373 108.428 62.8 108.535 62.8H115.095C115.212 62.8 115.303 62.8373 115.367 62.912C115.442 62.976 115.479 63.0667 115.479 63.184V63.776C115.479 63.968 115.436 64.176 115.351 64.4L111.415 73.6C111.362 73.7173 111.298 73.8133 111.223 73.888C111.159 73.9627 111.068 74 110.951 74H110.087Z" fill="#4A4FFF"/>
</g>
<g id="profile picture">
<path id="Vector" d="M60.5 125.5C60.5 136.546 51.5457 145.5 40.5 145.5C29.4543 145.5 20.5 136.546 20.5 125.5C20.5 114.454 29.4543 105.5 40.5 105.5C51.5457 105.5 60.5 114.454 60.5 125.5Z" fill="#F3F5F7" stroke="#D0D1D8"/>
<path id="Vector_2" d="M40.5195 146.081C44.5252 146.088 48.4442 144.915 51.7877 142.709C51.0323 138.58 48.1575 138.345 48.1575 138.345H32.3042C32.3042 138.345 29.5914 138.568 28.7441 142.366C32.1914 144.79 36.3048 146.088 40.5195 146.081Z" fill="#6C63FF"/>
<path id="Vector_3" d="M40.3015 134.963C45.7662 134.963 50.1963 130.533 50.1963 125.068C50.1963 119.603 45.7662 115.173 40.3015 115.173C34.8368 115.173 30.4067 119.603 30.4067 125.068C30.4067 130.533 34.8368 134.963 40.3015 134.963Z" fill="#333333"/>
<path id="Vector_4" opacity="0.1" d="M37.1079 133.31H43.448V138.382C43.448 139.222 43.1142 140.028 42.5199 140.623C41.9257 141.217 41.1197 141.552 40.2792 141.552C39.4384 141.552 38.6321 141.218 38.0376 140.623C37.4431 140.029 37.1091 139.223 37.1091 138.382V133.31H37.1079Z" fill="black"/>
<path id="Vector_5" d="M37.3087 133.074H43.2492C43.3025 133.074 43.3536 133.096 43.3913 133.133C43.429 133.171 43.4502 133.222 43.4502 133.275V138.147C43.4503 138.563 43.3683 138.975 43.2089 139.36C43.0496 139.745 42.816 140.095 42.5215 140.389C42.227 140.683 41.8774 140.917 41.4926 141.076C41.1078 141.235 40.6954 141.317 40.2789 141.317C39.4382 141.317 38.6319 140.983 38.0374 140.389C37.4429 139.794 37.1089 138.988 37.1089 138.147V133.275C37.1089 133.222 37.1299 133.171 37.1673 133.134C37.2048 133.096 37.2556 133.075 37.3087 133.074Z" fill="#FDB797"/>
<path id="Vector_6" opacity="0.1" d="M37.1196 135.704C39.163 136.467 41.4122 136.473 43.4597 135.721V134.941H37.1196V135.704Z" fill="black"/>
<path id="Vector_7" d="M40.3016 136.128C45.3206 136.128 49.3893 132.059 49.3893 127.04C49.3893 122.021 45.3206 117.953 40.3016 117.953C35.2826 117.953 31.2139 122.021 31.2139 127.04C31.2139 132.059 35.2826 136.128 40.3016 136.128Z" fill="#FDB797"/>
<path id="Vector_8" opacity="0.1" d="M33.8281 118.774C33.8281 118.774 37.6582 126.548 48.4621 122.034L45.9467 118.089L41.4877 116.489L33.8281 118.774Z" fill="black"/>
<path id="Vector_9" d="M33.8281 118.66C33.8281 118.66 37.6582 126.434 48.4621 121.918L45.9467 117.974L41.4877 116.374L33.8281 118.66Z" fill="#333333"/>
<path id="Vector_10" d="M33.7947 118.133C34.0529 117.334 34.4993 116.608 35.0962 116.017C36.8837 114.25 39.8144 113.877 41.3175 111.862C41.6775 112.421 41.3991 113.281 40.7774 113.521C42.2176 113.512 43.8863 113.386 44.7005 112.201C44.9018 112.67 44.9659 113.186 44.8855 113.689C44.8051 114.193 44.5835 114.663 44.2463 115.045C45.5226 115.105 46.8865 115.969 46.9669 117.245C47.0221 118.094 46.4869 118.898 45.7914 119.386C45.096 119.873 44.2487 120.097 43.4176 120.28C40.9911 120.815 32.2112 123.058 33.7947 118.133Z" fill="#333333"/>
<path id="Vector_11" d="M31.2102 128.617C31.6772 128.617 32.0557 127.907 32.0557 127.032C32.0557 126.156 31.6772 125.447 31.2102 125.447C30.7433 125.447 30.3647 126.156 30.3647 127.032C30.3647 127.907 30.7433 128.617 31.2102 128.617Z" fill="#FDB797"/>
<path id="Vector_12" d="M49.3879 128.617C49.8549 128.617 50.2334 127.907 50.2334 127.032C50.2334 126.156 49.8549 125.447 49.3879 125.447C48.921 125.447 48.5425 126.156 48.5425 127.032C48.5425 127.907 48.921 128.617 49.3879 128.617Z" fill="#FDB797"/>
</g>
<path id="Mir Hussain" d="M71.32 125C71.24 125 71.172 124.976 71.116 124.928C71.068 124.872 71.044 124.804 71.044 124.724V116.888C71.044 116.8 71.068 116.732 71.116 116.684C71.172 116.628 71.24 116.6 71.32 116.6H71.92C72.048 116.6 72.152 116.664 72.232 116.792L74.764 121.64L77.32 116.792C77.336 116.744 77.368 116.7 77.416 116.66C77.472 116.62 77.54 116.6 77.62 116.6H78.208C78.296 116.6 78.364 116.628 78.412 116.684C78.468 116.732 78.496 116.8 78.496 116.888V124.724C78.496 124.804 78.468 124.872 78.412 124.928C78.356 124.976 78.288 125 78.208 125H77.62C77.54 125 77.472 124.976 77.416 124.928C77.368 124.872 77.344 124.804 77.344 124.724V118.82L75.34 122.732C75.26 122.9 75.132 122.984 74.956 122.984H74.584C74.408 122.984 74.28 122.9 74.2 122.732L72.184 118.82V124.724C72.184 124.804 72.156 124.872 72.1 124.928C72.052 124.976 71.988 125 71.908 125H71.32ZM80.5953 117.596C80.5153 117.596 80.4473 117.572 80.3913 117.524C80.3433 117.468 80.3193 117.4 80.3193 117.32V116.672C80.3193 116.592 80.3433 116.524 80.3913 116.468C80.4473 116.412 80.5153 116.384 80.5953 116.384H81.3513C81.4313 116.384 81.4993 116.412 81.5553 116.468C81.6113 116.524 81.6393 116.592 81.6393 116.672V117.32C81.6393 117.4 81.6113 117.468 81.5553 117.524C81.4993 117.572 81.4313 117.596 81.3513 117.596H80.5953ZM80.6913 125C80.6113 125 80.5433 124.976 80.4873 124.928C80.4393 124.872 80.4153 124.804 80.4153 124.724V119.036C80.4153 118.956 80.4393 118.892 80.4873 118.844C80.5433 118.788 80.6113 118.76 80.6913 118.76H81.2673C81.3473 118.76 81.4113 118.788 81.4593 118.844C81.5153 118.892 81.5433 118.956 81.5433 119.036V124.724C81.5433 124.804 81.5153 124.872 81.4593 124.928C81.4113 124.976 81.3473 125 81.2673 125H80.6913ZM83.5976 125C83.5176 125 83.4496 124.976 83.3936 124.928C83.3456 124.872 83.3216 124.804 83.3216 124.724V119.048C83.3216 118.968 83.3456 118.9 83.3936 118.844C83.4496 118.788 83.5176 118.76 83.5976 118.76H84.1496C84.2296 118.76 84.2976 118.788 84.3536 118.844C84.4096 118.9 84.4376 118.968 84.4376 119.048V119.576C84.7656 119.032 85.3256 118.76 86.1176 118.76H86.5856C86.6656 118.76 86.7296 118.788 86.7776 118.844C86.8336 118.892 86.8616 118.956 86.8616 119.036V119.528C86.8616 119.608 86.8336 119.672 86.7776 119.72C86.7296 119.768 86.6656 119.792 86.5856 119.792H85.8656C85.4336 119.792 85.0936 119.92 84.8456 120.176C84.5976 120.424 84.4736 120.764 84.4736 121.196V124.724C84.4736 124.804 84.4456 124.872 84.3896 124.928C84.3336 124.976 84.2656 125 84.1856 125H83.5976ZM90.9723 125C90.8923 125 90.8243 124.976 90.7683 124.928C90.7203 124.872 90.6963 124.804 90.6963 124.724V116.888C90.6963 116.8 90.7203 116.732 90.7683 116.684C90.8243 116.628 90.8923 116.6 90.9723 116.6H91.5843C91.6723 116.6 91.7403 116.628 91.7883 116.684C91.8443 116.732 91.8723 116.8 91.8723 116.888V120.2H96.0003V116.888C96.0003 116.8 96.0243 116.732 96.0723 116.684C96.1283 116.628 96.1963 116.6 96.2763 116.6H96.8883C96.9763 116.6 97.0443 116.628 97.0923 116.684C97.1483 116.732 97.1763 116.8 97.1763 116.888V124.724C97.1763 124.804 97.1483 124.872 97.0923 124.928C97.0363 124.976 96.9683 125 96.8883 125H96.2763C96.1963 125 96.1283 124.976 96.0723 124.928C96.0243 124.872 96.0003 124.804 96.0003 124.724V121.28H91.8723V124.724C91.8723 124.804 91.8443 124.872 91.7883 124.928C91.7323 124.976 91.6643 125 91.5843 125H90.9723ZM101.435 125.12C100.675 125.12 100.087 124.876 99.6708 124.388C99.2548 123.892 99.0468 123.236 99.0468 122.42V119.036C99.0468 118.956 99.0708 118.892 99.1188 118.844C99.1748 118.788 99.2428 118.76 99.3228 118.76H99.9228C100.003 118.76 100.067 118.788 100.115 118.844C100.171 118.892 100.199 118.956 100.199 119.036V122.36C100.199 123.552 100.719 124.148 101.759 124.148C102.263 124.148 102.663 123.992 102.959 123.68C103.255 123.36 103.403 122.92 103.403 122.36V119.036C103.403 118.956 103.427 118.892 103.475 118.844C103.531 118.788 103.599 118.76 103.679 118.76H104.279C104.359 118.76 104.423 118.788 104.471 118.844C104.519 118.892 104.543 118.956 104.543 119.036V124.724C104.543 124.804 104.519 124.872 104.471 124.928C104.423 124.976 104.359 125 104.279 125H103.715C103.635 125 103.567 124.976 103.511 124.928C103.463 124.872 103.439 124.804 103.439 124.724V124.196C103.215 124.5 102.943 124.732 102.623 124.892C102.303 125.044 101.907 125.12 101.435 125.12ZM108.486 125.12C107.926 125.12 107.454 125.032 107.07 124.856C106.694 124.672 106.41 124.464 106.218 124.232C106.034 124 105.942 123.808 105.942 123.656C105.942 123.576 105.97 123.516 106.026 123.476C106.09 123.428 106.154 123.404 106.218 123.404H106.758C106.838 123.404 106.91 123.444 106.974 123.524C107.166 123.748 107.374 123.924 107.598 124.052C107.822 124.18 108.122 124.244 108.498 124.244C108.914 124.244 109.25 124.164 109.506 124.004C109.77 123.836 109.902 123.608 109.902 123.32C109.902 123.128 109.846 122.972 109.734 122.852C109.63 122.724 109.446 122.616 109.182 122.528C108.926 122.432 108.542 122.328 108.03 122.216C107.334 122.064 106.838 121.844 106.542 121.556C106.254 121.268 106.11 120.896 106.11 120.44C106.11 120.136 106.198 119.848 106.374 119.576C106.558 119.296 106.822 119.072 107.166 118.904C107.518 118.728 107.938 118.64 108.426 118.64C108.938 118.64 109.374 118.724 109.734 118.892C110.094 119.06 110.362 119.26 110.538 119.492C110.722 119.716 110.814 119.904 110.814 120.056C110.814 120.128 110.786 120.188 110.73 120.236C110.682 120.284 110.622 120.308 110.55 120.308H110.046C109.95 120.308 109.87 120.268 109.806 120.188C109.678 120.036 109.566 119.92 109.47 119.84C109.382 119.752 109.25 119.676 109.074 119.612C108.906 119.548 108.69 119.516 108.426 119.516C108.042 119.516 107.746 119.6 107.538 119.768C107.33 119.928 107.226 120.14 107.226 120.404C107.226 120.572 107.27 120.716 107.358 120.836C107.446 120.948 107.614 121.052 107.862 121.148C108.118 121.244 108.486 121.344 108.965 121.448C109.726 121.608 110.262 121.84 110.574 122.144C110.894 122.44 111.054 122.82 111.054 123.284C111.054 123.628 110.954 123.94 110.754 124.22C110.554 124.5 110.258 124.72 109.866 124.88C109.482 125.04 109.022 125.12 108.486 125.12ZM114.603 125.12C114.043 125.12 113.571 125.032 113.187 124.856C112.811 124.672 112.527 124.464 112.335 124.232C112.151 124 112.059 123.808 112.059 123.656C112.059 123.576 112.087 123.516 112.143 123.476C112.207 123.428 112.271 123.404 112.335 123.404H112.875C112.955 123.404 113.027 123.444 113.091 123.524C113.283 123.748 113.491 123.924 113.715 124.052C113.939 124.18 114.239 124.244 114.615 124.244C115.031 124.244 115.367 124.164 115.623 124.004C115.887 123.836 116.019 123.608 116.019 123.32C116.019 123.128 115.963 122.972 115.851 122.852C115.747 122.724 115.563 122.616 115.299 122.528C115.043 122.432 114.659 122.328 114.147 122.216C113.451 122.064 112.955 121.844 112.659 121.556C112.371 121.268 112.227 120.896 112.227 120.44C112.227 120.136 112.315 119.848 112.491 119.576C112.675 119.296 112.939 119.072 113.283 118.904C113.635 118.728 114.055 118.64 114.543 118.64C115.055 118.64 115.491 118.724 115.851 118.892C116.211 119.06 116.479 119.26 116.655 119.492C116.839 119.716 116.931 119.904 116.931 120.056C116.931 120.128 116.903 120.188 116.847 120.236C116.799 120.284 116.739 120.308 116.667 120.308H116.163C116.067 120.308 115.987 120.268 115.923 120.188C115.795 120.036 115.683 119.92 115.587 119.84C115.499 119.752 115.367 119.676 115.191 119.612C115.023 119.548 114.807 119.516 114.543 119.516C114.159 119.516 113.863 119.6 113.655 119.768C113.447 119.928 113.343 120.14 113.343 120.404C113.343 120.572 113.387 120.716 113.475 120.836C113.563 120.948 113.731 121.052 113.979 121.148C114.235 121.244 114.603 121.344 115.083 121.448C115.843 121.608 116.379 121.84 116.691 122.144C117.011 122.44 117.171 122.82 117.171 123.284C117.171 123.628 117.071 123.94 116.871 124.22C116.671 124.5 116.375 124.72 115.983 124.88C115.599 125.04 115.139 125.12 114.603 125.12ZM120.3 125.12C119.908 125.12 119.544 125.04 119.208 124.88C118.872 124.72 118.604 124.504 118.404 124.232C118.212 123.952 118.116 123.644 118.116 123.308C118.116 122.78 118.332 122.348 118.764 122.012C119.204 121.668 119.796 121.444 120.54 121.34L122.328 121.088V120.74C122.328 119.924 121.86 119.516 120.924 119.516C120.572 119.516 120.284 119.592 120.06 119.744C119.836 119.888 119.668 120.06 119.556 120.26C119.532 120.332 119.5 120.384 119.46 120.416C119.428 120.448 119.38 120.464 119.316 120.464H118.8C118.728 120.464 118.664 120.44 118.608 120.392C118.56 120.336 118.536 120.272 118.536 120.2C118.544 120.008 118.632 119.792 118.8 119.552C118.976 119.304 119.244 119.092 119.604 118.916C119.964 118.732 120.408 118.64 120.936 118.64C121.832 118.64 122.476 118.852 122.868 119.276C123.26 119.692 123.456 120.212 123.456 120.836V124.724C123.456 124.804 123.428 124.872 123.372 124.928C123.324 124.976 123.26 125 123.18 125H122.628C122.548 125 122.48 124.976 122.424 124.928C122.376 124.872 122.352 124.804 122.352 124.724V124.208C122.176 124.464 121.92 124.68 121.584 124.856C121.248 125.032 120.82 125.12 120.3 125.12ZM120.552 124.22C121.072 124.22 121.496 124.052 121.824 123.716C122.16 123.372 122.328 122.88 122.328 122.24V121.904L120.936 122.108C120.368 122.188 119.94 122.324 119.652 122.516C119.364 122.7 119.22 122.936 119.22 123.224C119.22 123.544 119.352 123.792 119.616 123.968C119.88 124.136 120.192 124.22 120.552 124.22ZM125.361 117.596C125.281 117.596 125.213 117.572 125.157 117.524C125.109 117.468 125.085 117.4 125.085 117.32V116.672C125.085 116.592 125.109 116.524 125.157 116.468C125.213 116.412 125.281 116.384 125.361 116.384H126.117C126.197 116.384 126.265 116.412 126.321 116.468C126.377 116.524 126.405 116.592 126.405 116.672V117.32C126.405 117.4 126.377 117.468 126.321 117.524C126.265 117.572 126.197 117.596 126.117 117.596H125.361ZM125.457 125C125.377 125 125.309 124.976 125.253 124.928C125.205 124.872 125.181 124.804 125.181 124.724V119.036C125.181 118.956 125.205 118.892 125.253 118.844C125.309 118.788 125.377 118.76 125.457 118.76H126.033C126.113 118.76 126.177 118.788 126.225 118.844C126.281 118.892 126.309 118.956 126.309 119.036V124.724C126.309 124.804 126.281 124.872 126.225 124.928C126.177 124.976 126.113 125 126.033 125H125.457ZM128.363 125C128.283 125 128.215 124.976 128.159 124.928C128.111 124.872 128.087 124.804 128.087 124.724V119.036C128.087 118.956 128.111 118.892 128.159 118.844C128.215 118.788 128.283 118.76 128.363 118.76H128.927C129.007 118.76 129.071 118.788 129.119 118.844C129.175 118.892 129.203 118.956 129.203 119.036V119.564C129.435 119.268 129.707 119.04 130.019 118.88C130.339 118.72 130.735 118.64 131.207 118.64C131.975 118.64 132.571 118.888 132.995 119.384C133.427 119.872 133.643 120.524 133.643 121.34V124.724C133.643 124.804 133.615 124.872 133.559 124.928C133.511 124.976 133.447 125 133.367 125H132.767C132.687 125 132.619 124.976 132.563 124.928C132.515 124.872 132.491 124.804 132.491 124.724V121.4C132.491 120.832 132.351 120.392 132.071 120.08C131.799 119.768 131.403 119.612 130.883 119.612C130.379 119.612 129.979 119.772 129.683 120.092C129.387 120.404 129.239 120.84 129.239 121.4V124.724C129.239 124.804 129.211 124.872 129.155 124.928C129.107 124.976 129.043 125 128.963 125H128.363Z" fill="#171E3C"/>
<path id="mirhussainmurtaza@gmail.com" d="M69.97 140C69.9033 140 69.8467 139.98 69.8 139.94C69.76 139.893 69.74 139.837 69.74 139.77V135.03C69.74 134.963 69.76 134.91 69.8 134.87C69.8467 134.823 69.9033 134.8 69.97 134.8H70.42C70.4867 134.8 70.54 134.823 70.58 134.87C70.6267 134.91 70.65 134.963 70.65 135.03V135.38C70.9967 134.927 71.48 134.7 72.1 134.7C72.84 134.7 73.3633 135.007 73.67 135.62C73.83 135.34 74.0567 135.117 74.35 134.95C74.6433 134.783 74.9733 134.7 75.34 134.7C75.8867 134.7 76.3333 134.887 76.68 135.26C77.0267 135.633 77.2 136.173 77.2 136.88V139.77C77.2 139.837 77.1767 139.893 77.13 139.94C77.09 139.98 77.0367 140 76.97 140H76.5C76.4333 140 76.3767 139.98 76.33 139.94C76.29 139.893 76.27 139.837 76.27 139.77V136.97C76.27 136.45 76.16 136.077 75.94 135.85C75.7267 135.623 75.4433 135.51 75.09 135.51C74.7767 135.51 74.5067 135.627 74.28 135.86C74.0533 136.087 73.94 136.457 73.94 136.97V139.77C73.94 139.837 73.9167 139.893 73.87 139.94C73.83 139.98 73.7767 140 73.71 140H73.24C73.1733 140 73.1167 139.98 73.07 139.94C73.03 139.893 73.01 139.837 73.01 139.77V136.97C73.01 136.45 72.8967 136.077 72.67 135.85C72.45 135.623 72.17 135.51 71.83 135.51C71.5167 135.51 71.2467 135.627 71.02 135.86C70.7933 136.087 70.68 136.453 70.68 136.96V139.77C70.68 139.837 70.6567 139.893 70.61 139.94C70.57 139.98 70.5167 140 70.45 140H69.97ZM78.7767 133.83C78.7101 133.83 78.6534 133.81 78.6067 133.77C78.5667 133.723 78.5467 133.667 78.5467 133.6V133.06C78.5467 132.993 78.5667 132.937 78.6067 132.89C78.6534 132.843 78.7101 132.82 78.7767 132.82H79.4067C79.4734 132.82 79.5301 132.843 79.5767 132.89C79.6234 132.937 79.6467 132.993 79.6467 133.06V133.6C79.6467 133.667 79.6234 133.723 79.5767 133.77C79.5301 133.81 79.4734 133.83 79.4067 133.83H78.7767ZM78.8567 140C78.7901 140 78.7334 139.98 78.6867 139.94C78.6467 139.893 78.6267 139.837 78.6267 139.77V135.03C78.6267 134.963 78.6467 134.91 78.6867 134.87C78.7334 134.823 78.7901 134.8 78.8567 134.8H79.3367C79.4034 134.8 79.4567 134.823 79.4967 134.87C79.5434 134.91 79.5667 134.963 79.5667 135.03V139.77C79.5667 139.837 79.5434 139.893 79.4967 139.94C79.4567 139.98 79.4034 140 79.3367 140H78.8567ZM81.2786 140C81.2119 140 81.1553 139.98 81.1086 139.94C81.0686 139.893 81.0486 139.837 81.0486 139.77V135.04C81.0486 134.973 81.0686 134.917 81.1086 134.87C81.1553 134.823 81.2119 134.8 81.2786 134.8H81.7386C81.8053 134.8 81.8619 134.823 81.9086 134.87C81.9553 134.917 81.9786 134.973 81.9786 135.04V135.48C82.2519 135.027 82.7186 134.8 83.3786 134.8H83.7686C83.8353 134.8 83.8886 134.823 83.9286 134.87C83.9753 134.91 83.9986 134.963 83.9986 135.03V135.44C83.9986 135.507 83.9753 135.56 83.9286 135.6C83.8886 135.64 83.8353 135.66 83.7686 135.66H83.1686C82.8086 135.66 82.5253 135.767 82.3186 135.98C82.1119 136.187 82.0086 136.47 82.0086 136.83V139.77C82.0086 139.837 81.9853 139.893 81.9386 139.94C81.8919 139.98 81.8353 140 81.7686 140H81.2786ZM85.0874 140C85.0208 140 84.9641 139.98 84.9174 139.94C84.8774 139.893 84.8574 139.837 84.8574 139.77V133.13C84.8574 133.063 84.8774 133.01 84.9174 132.97C84.9641 132.923 85.0208 132.9 85.0874 132.9H85.5874C85.6541 132.9 85.7074 132.923 85.7474 132.97C85.7941 133.01 85.8174 133.063 85.8174 133.13V135.46C86.0108 135.213 86.2374 135.027 86.4974 134.9C86.7574 134.767 87.0808 134.7 87.4674 134.7C88.1074 134.7 88.6041 134.907 88.9574 135.32C89.3174 135.727 89.4974 136.27 89.4974 136.95V139.77C89.4974 139.837 89.4741 139.893 89.4274 139.94C89.3874 139.98 89.3341 140 89.2674 140H88.7674C88.7008 140 88.6441 139.98 88.5974 139.94C88.5574 139.893 88.5374 139.837 88.5374 139.77V137C88.5374 136.527 88.4208 136.16 88.1874 135.9C87.9608 135.64 87.6308 135.51 87.1974 135.51C86.7774 135.51 86.4408 135.643 86.1874 135.91C85.9408 136.17 85.8174 136.533 85.8174 137V139.77C85.8174 139.837 85.7941 139.893 85.7474 139.94C85.7074 139.98 85.6541 140 85.5874 140H85.0874ZM92.8812 140.1C92.2478 140.1 91.7578 139.897 91.4112 139.49C91.0645 139.077 90.8912 138.53 90.8912 137.85V135.03C90.8912 134.963 90.9112 134.91 90.9512 134.87C90.9978 134.823 91.0545 134.8 91.1212 134.8H91.6212C91.6878 134.8 91.7412 134.823 91.7812 134.87C91.8278 134.91 91.8512 134.963 91.8512 135.03V137.8C91.8512 138.793 92.2845 139.29 93.1512 139.29C93.5712 139.29 93.9045 139.16 94.1512 138.9C94.3978 138.633 94.5212 138.267 94.5212 137.8V135.03C94.5212 134.963 94.5412 134.91 94.5812 134.87C94.6278 134.823 94.6845 134.8 94.7512 134.8H95.2512C95.3178 134.8 95.3712 134.823 95.4112 134.87C95.4512 134.91 95.4712 134.963 95.4712 135.03V139.77C95.4712 139.837 95.4512 139.893 95.4112 139.94C95.3712 139.98 95.3178 140 95.2512 140H94.7812C94.7145 140 94.6578 139.98 94.6112 139.94C94.5712 139.893 94.5512 139.837 94.5512 139.77V139.33C94.3645 139.583 94.1378 139.777 93.8712 139.91C93.6045 140.037 93.2745 140.1 92.8812 140.1ZM98.7568 140.1C98.2901 140.1 97.8968 140.027 97.5768 139.88C97.2635 139.727 97.0268 139.553 96.8668 139.36C96.7135 139.167 96.6368 139.007 96.6368 138.88C96.6368 138.813 96.6601 138.763 96.7068 138.73C96.7601 138.69 96.8135 138.67 96.8668 138.67H97.3168C97.3835 138.67 97.4435 138.703 97.4968 138.77C97.6568 138.957 97.8301 139.103 98.0168 139.21C98.2035 139.317 98.4535 139.37 98.7668 139.37C99.1135 139.37 99.3935 139.303 99.6068 139.17C99.8268 139.03 99.9368 138.84 99.9368 138.6C99.9368 138.44 99.8901 138.31 99.7968 138.21C99.7101 138.103 99.5568 138.013 99.3368 137.94C99.1235 137.86 98.8035 137.773 98.3768 137.68C97.7968 137.553 97.3835 137.37 97.1368 137.13C96.8968 136.89 96.7768 136.58 96.7768 136.2C96.7768 135.947 96.8501 135.707 96.9968 135.48C97.1501 135.247 97.3701 135.06 97.6568 134.92C97.9501 134.773 98.3001 134.7 98.7068 134.7C99.1335 134.7 99.4968 134.77 99.7968 134.91C100.097 135.05 100.32 135.217 100.467 135.41C100.62 135.597 100.697 135.753 100.697 135.88C100.697 135.94 100.673 135.99 100.627 136.03C100.587 136.07 100.537 136.09 100.477 136.09H100.057C99.9768 136.09 99.9101 136.057 99.8568 135.99C99.7501 135.863 99.6568 135.767 99.5768 135.7C99.5035 135.627 99.3935 135.563 99.2468 135.51C99.1068 135.457 98.9268 135.43 98.7068 135.43C98.3868 135.43 98.1401 135.5 97.9668 135.64C97.7935 135.773 97.7068 135.95 97.7068 136.17C97.7068 136.31 97.7435 136.43 97.8168 136.53C97.8901 136.623 98.0301 136.71 98.2368 136.79C98.4501 136.87 98.7568 136.953 99.1568 137.04C99.7901 137.173 100.237 137.367 100.497 137.62C100.763 137.867 100.897 138.183 100.897 138.57C100.897 138.857 100.813 139.117 100.647 139.35C100.48 139.583 100.233 139.767 99.9068 139.9C99.5868 140.033 99.2035 140.1 98.7568 140.1ZM103.854 140.1C103.388 140.1 102.994 140.027 102.674 139.88C102.361 139.727 102.124 139.553 101.964 139.36C101.811 139.167 101.734 139.007 101.734 138.88C101.734 138.813 101.758 138.763 101.804 138.73C101.858 138.69 101.911 138.67 101.964 138.67H102.414C102.481 138.67 102.541 138.703 102.594 138.77C102.754 138.957 102.928 139.103 103.114 139.21C103.301 139.317 103.551 139.37 103.864 139.37C104.211 139.37 104.491 139.303 104.704 139.17C104.924 139.03 105.034 138.84 105.034 138.6C105.034 138.44 104.988 138.31 104.894 138.21C104.808 138.103 104.654 138.013 104.434 137.94C104.221 137.86 103.901 137.773 103.474 137.68C102.894 137.553 102.481 137.37 102.234 137.13C101.994 136.89 101.874 136.58 101.874 136.2C101.874 135.947 101.948 135.707 102.094 135.48C102.248 135.247 102.468 135.06 102.754 134.92C103.048 134.773 103.398 134.7 103.804 134.7C104.231 134.7 104.594 134.77 104.894 134.91C105.194 135.05 105.418 135.217 105.564 135.41C105.718 135.597 105.794 135.753 105.794 135.88C105.794 135.94 105.771 135.99 105.724 136.03C105.684 136.07 105.634 136.09 105.574 136.09H105.154C105.074 136.09 105.008 136.057 104.954 135.99C104.848 135.863 104.754 135.767 104.674 135.7C104.601 135.627 104.491 135.563 104.344 135.51C104.204 135.457 104.024 135.43 103.804 135.43C103.484 135.43 103.238 135.5 103.064 135.64C102.891 135.773 102.804 135.95 102.804 136.17C102.804 136.31 102.841 136.43 102.914 136.53C102.988 136.623 103.128 136.71 103.334 136.79C103.548 136.87 103.854 136.953 104.254 137.04C104.888 137.173 105.334 137.367 105.594 137.62C105.861 137.867 105.994 138.183 105.994 138.57C105.994 138.857 105.911 139.117 105.744 139.35C105.578 139.583 105.331 139.767 105.004 139.9C104.684 140.033 104.301 140.1 103.854 140.1ZM108.602 140.1C108.275 140.1 107.972 140.033 107.692 139.9C107.412 139.767 107.189 139.587 107.022 139.36C106.862 139.127 106.782 138.87 106.782 138.59C106.782 138.15 106.962 137.79 107.322 137.51C107.689 137.223 108.182 137.037 108.802 136.95L110.292 136.74V136.45C110.292 135.77 109.902 135.43 109.122 135.43C108.829 135.43 108.589 135.493 108.402 135.62C108.215 135.74 108.075 135.883 107.982 136.05C107.962 136.11 107.935 136.153 107.902 136.18C107.875 136.207 107.835 136.22 107.782 136.22H107.352C107.292 136.22 107.239 136.2 107.192 136.16C107.152 136.113 107.132 136.06 107.132 136C107.139 135.84 107.212 135.66 107.352 135.46C107.499 135.253 107.722 135.077 108.022 134.93C108.322 134.777 108.692 134.7 109.132 134.7C109.879 134.7 110.415 134.877 110.742 135.23C111.069 135.577 111.232 136.01 111.232 136.53V139.77C111.232 139.837 111.209 139.893 111.162 139.94C111.122 139.98 111.069 140 111.002 140H110.542C110.475 140 110.419 139.98 110.372 139.94C110.332 139.893 110.312 139.837 110.312 139.77V139.34C110.165 139.553 109.952 139.733 109.672 139.88C109.392 140.027 109.035 140.1 108.602 140.1ZM108.812 139.35C109.245 139.35 109.599 139.21 109.872 138.93C110.152 138.643 110.292 138.233 110.292 137.7V137.42L109.132 137.59C108.659 137.657 108.302 137.77 108.062 137.93C107.822 138.083 107.702 138.28 107.702 138.52C107.702 138.787 107.812 138.993 108.032 139.14C108.252 139.28 108.512 139.35 108.812 139.35ZM112.82 133.83C112.753 133.83 112.696 133.81 112.65 133.77C112.61 133.723 112.59 133.667 112.59 133.6V133.06C112.59 132.993 112.61 132.937 112.65 132.89C112.696 132.843 112.753 132.82 112.82 132.82H113.45C113.516 132.82 113.573 132.843 113.62 132.89C113.666 132.937 113.69 132.993 113.69 133.06V133.6C113.69 133.667 113.666 133.723 113.62 133.77C113.573 133.81 113.516 133.83 113.45 133.83H112.82ZM112.9 140C112.833 140 112.776 139.98 112.73 139.94C112.69 139.893 112.67 139.837 112.67 139.77V135.03C112.67 134.963 112.69 134.91 112.73 134.87C112.776 134.823 112.833 134.8 112.9 134.8H113.38C113.446 134.8 113.5 134.823 113.54 134.87C113.586 134.91 113.61 134.963 113.61 135.03V139.77C113.61 139.837 113.586 139.893 113.54 139.94C113.5 139.98 113.446 140 113.38 140H112.9ZM115.322 140C115.255 140 115.198 139.98 115.152 139.94C115.112 139.893 115.092 139.837 115.092 139.77V135.03C115.092 134.963 115.112 134.91 115.152 134.87C115.198 134.823 115.255 134.8 115.322 134.8H115.792C115.858 134.8 115.912 134.823 115.952 134.87C115.998 134.91 116.022 134.963 116.022 135.03V135.47C116.215 135.223 116.442 135.033 116.702 134.9C116.968 134.767 117.298 134.7 117.692 134.7C118.332 134.7 118.828 134.907 119.182 135.32C119.542 135.727 119.722 136.27 119.722 136.95V139.77C119.722 139.837 119.698 139.893 119.652 139.94C119.612 139.98 119.558 140 119.492 140H118.992C118.925 140 118.868 139.98 118.822 139.94C118.782 139.893 118.762 139.837 118.762 139.77V137C118.762 136.527 118.645 136.16 118.412 135.9C118.185 135.64 117.855 135.51 117.422 135.51C117.002 135.51 116.668 135.643 116.422 135.91C116.175 136.17 116.052 136.533 116.052 137V139.77C116.052 139.837 116.028 139.893 115.982 139.94C115.942 139.98 115.888 140 115.822 140H115.322ZM121.386 140C121.319 140 121.263 139.98 121.216 139.94C121.176 139.893 121.156 139.837 121.156 139.77V135.03C121.156 134.963 121.176 134.91 121.216 134.87C121.263 134.823 121.319 134.8 121.386 134.8H121.836C121.903 134.8 121.956 134.823 121.996 134.87C122.043 134.91 122.066 134.963 122.066 135.03V135.38C122.413 134.927 122.896 134.7 123.516 134.7C124.256 134.7 124.779 135.007 125.086 135.62C125.246 135.34 125.473 135.117 125.766 134.95C126.059 134.783 126.389 134.7 126.756 134.7C127.303 134.7 127.749 134.887 128.096 135.26C128.443 135.633 128.616 136.173 128.616 136.88V139.77C128.616 139.837 128.593 139.893 128.546 139.94C128.506 139.98 128.453 140 128.386 140H127.916C127.849 140 127.793 139.98 127.746 139.94C127.706 139.893 127.686 139.837 127.686 139.77V136.97C127.686 136.45 127.576 136.077 127.356 135.85C127.143 135.623 126.859 135.51 126.506 135.51C126.193 135.51 125.923 135.627 125.696 135.86C125.469 136.087 125.356 136.457 125.356 136.97V139.77C125.356 139.837 125.333 139.893 125.286 139.94C125.246 139.98 125.193 140 125.126 140H124.656C124.589 140 124.533 139.98 124.486 139.94C124.446 139.893 124.426 139.837 124.426 139.77V136.97C124.426 136.45 124.313 136.077 124.086 135.85C123.866 135.623 123.586 135.51 123.246 135.51C122.933 135.51 122.663 135.627 122.436 135.86C122.209 136.087 122.096 136.453 122.096 136.96V139.77C122.096 139.837 122.073 139.893 122.026 139.94C121.986 139.98 121.933 140 121.866 140H121.386ZM131.983 140.1C131.349 140.1 130.859 139.897 130.513 139.49C130.166 139.077 129.993 138.53 129.993 137.85V135.03C129.993 134.963 130.013 134.91 130.053 134.87C130.099 134.823 130.156 134.8 130.223 134.8H130.723C130.789 134.8 130.843 134.823 130.883 134.87C130.929 134.91 130.953 134.963 130.953 135.03V137.8C130.953 138.793 131.386 139.29 132.253 139.29C132.673 139.29 133.006 139.16 133.253 138.9C133.499 138.633 133.623 138.267 133.623 137.8V135.03C133.623 134.963 133.643 134.91 133.683 134.87C133.729 134.823 133.786 134.8 133.853 134.8H134.353C134.419 134.8 134.473 134.823 134.513 134.87C134.553 134.91 134.573 134.963 134.573 135.03V139.77C134.573 139.837 134.553 139.893 134.513 139.94C134.473 139.98 134.419 140 134.353 140H133.883C133.816 140 133.759 139.98 133.713 139.94C133.673 139.893 133.653 139.837 133.653 139.77V139.33C133.466 139.583 133.239 139.777 132.973 139.91C132.706 140.037 132.376 140.1 131.983 140.1ZM136.288 140C136.222 140 136.165 139.98 136.118 139.94C136.078 139.893 136.058 139.837 136.058 139.77V135.04C136.058 134.973 136.078 134.917 136.118 134.87C136.165 134.823 136.222 134.8 136.288 134.8H136.748C136.815 134.8 136.872 134.823 136.918 134.87C136.965 134.917 136.988 134.973 136.988 135.04V135.48C137.262 135.027 137.728 134.8 138.388 134.8H138.778C138.845 134.8 138.898 134.823 138.938 134.87C138.985 134.91 139.008 134.963 139.008 135.03V135.44C139.008 135.507 138.985 135.56 138.938 135.6C138.898 135.64 138.845 135.66 138.778 135.66H138.178C137.818 135.66 137.535 135.767 137.328 135.98C137.122 136.187 137.018 136.47 137.018 136.83V139.77C137.018 139.837 136.995 139.893 136.948 139.94C136.902 139.98 136.845 140 136.778 140H136.288ZM141.887 140C140.834 140 140.307 139.413 140.307 138.24V135.6H139.527C139.461 135.6 139.404 135.58 139.357 135.54C139.317 135.493 139.297 135.437 139.297 135.37V135.03C139.297 134.963 139.317 134.91 139.357 134.87C139.404 134.823 139.461 134.8 139.527 134.8H140.307V133.13C140.307 133.063 140.327 133.01 140.367 132.97C140.414 132.923 140.471 132.9 140.537 132.9H141.007C141.074 132.9 141.127 132.923 141.167 132.97C141.214 133.01 141.237 133.063 141.237 133.13V134.8H142.477C142.544 134.8 142.597 134.823 142.637 134.87C142.684 134.91 142.707 134.963 142.707 135.03V135.37C142.707 135.437 142.684 135.493 142.637 135.54C142.597 135.58 142.544 135.6 142.477 135.6H141.237V138.17C141.237 138.503 141.294 138.757 141.407 138.93C141.521 139.097 141.707 139.18 141.967 139.18H142.577C142.644 139.18 142.697 139.203 142.737 139.25C142.784 139.29 142.807 139.343 142.807 139.41V139.77C142.807 139.837 142.784 139.893 142.737 139.94C142.697 139.98 142.644 140 142.577 140H141.887ZM145.213 140.1C144.887 140.1 144.583 140.033 144.303 139.9C144.023 139.767 143.8 139.587 143.633 139.36C143.473 139.127 143.393 138.87 143.393 138.59C143.393 138.15 143.573 137.79 143.933 137.51C144.3 137.223 144.793 137.037 145.413 136.95L146.903 136.74V136.45C146.903 135.77 146.513 135.43 145.733 135.43C145.44 135.43 145.2 135.493 145.013 135.62C144.827 135.74 144.687 135.883 144.593 136.05C144.573 136.11 144.547 136.153 144.513 136.18C144.487 136.207 144.447 136.22 144.393 136.22H143.963C143.903 136.22 143.85 136.2 143.803 136.16C143.763 136.113 143.743 136.06 143.743 136C143.75 135.84 143.823 135.66 143.963 135.46C144.11 135.253 144.333 135.077 144.633 134.93C144.933 134.777 145.303 134.7 145.743 134.7C146.49 134.7 147.027 134.877 147.353 135.23C147.68 135.577 147.843 136.01 147.843 136.53V139.77C147.843 139.837 147.82 139.893 147.773 139.94C147.733 139.98 147.68 140 147.613 140H147.153C147.087 140 147.03 139.98 146.983 139.94C146.943 139.893 146.923 139.837 146.923 139.77V139.34C146.777 139.553 146.563 139.733 146.283 139.88C146.003 140.027 145.647 140.1 145.213 140.1ZM145.423 139.35C145.857 139.35 146.21 139.21 146.483 138.93C146.763 138.643 146.903 138.233 146.903 137.7V137.42L145.743 137.59C145.27 137.657 144.913 137.77 144.673 137.93C144.433 138.083 144.313 138.28 144.313 138.52C144.313 138.787 144.423 138.993 144.643 139.14C144.863 139.28 145.123 139.35 145.423 139.35ZM149.181 140C149.114 140 149.058 139.98 149.011 139.94C148.971 139.893 148.951 139.837 148.951 139.77V139.42C148.951 139.367 148.964 139.313 148.991 139.26C149.024 139.2 149.058 139.147 149.091 139.1L151.851 135.59H149.271C149.204 135.59 149.148 135.57 149.101 135.53C149.061 135.483 149.041 135.427 149.041 135.36V135.03C149.041 134.963 149.061 134.91 149.101 134.87C149.148 134.823 149.204 134.8 149.271 134.8H152.831C152.898 134.8 152.951 134.823 152.991 134.87C153.038 134.91 153.061 134.963 153.061 135.03V135.4C153.061 135.453 153.044 135.507 153.011 135.56C152.984 135.613 152.954 135.663 152.921 135.71L150.191 139.21H153.031C153.104 139.21 153.161 139.23 153.201 139.27C153.241 139.31 153.261 139.367 153.261 139.44V139.77C153.261 139.837 153.238 139.893 153.191 139.94C153.151 139.98 153.098 140 153.031 140H149.181ZM155.819 140.1C155.492 140.1 155.189 140.033 154.909 139.9C154.629 139.767 154.406 139.587 154.239 139.36C154.079 139.127 153.999 138.87 153.999 138.59C153.999 138.15 154.179 137.79 154.539 137.51C154.906 137.223 155.399 137.037 156.019 136.95L157.509 136.74V136.45C157.509 135.77 157.119 135.43 156.339 135.43C156.046 135.43 155.806 135.493 155.619 135.62C155.432 135.74 155.292 135.883 155.199 136.05C155.179 136.11 155.152 136.153 155.119 136.18C155.092 136.207 155.052 136.22 154.999 136.22H154.569C154.509 136.22 154.456 136.2 154.409 136.16C154.369 136.113 154.349 136.06 154.349 136C154.356 135.84 154.429 135.66 154.569 135.46C154.716 135.253 154.939 135.077 155.239 134.93C155.539 134.777 155.909 134.7 156.349 134.7C157.096 134.7 157.632 134.877 157.959 135.23C158.286 135.577 158.449 136.01 158.449 136.53V139.77C158.449 139.837 158.426 139.893 158.379 139.94C158.339 139.98 158.286 140 158.219 140H157.759C157.692 140 157.636 139.98 157.589 139.94C157.549 139.893 157.529 139.837 157.529 139.77V139.34C157.382 139.553 157.169 139.733 156.889 139.88C156.609 140.027 156.252 140.1 155.819 140.1ZM156.029 139.35C156.462 139.35 156.816 139.21 157.089 138.93C157.369 138.643 157.509 138.233 157.509 137.7V137.42L156.349 137.59C155.876 137.657 155.519 137.77 155.279 137.93C155.039 138.083 154.919 138.28 154.919 138.52C154.919 138.787 155.029 138.993 155.249 139.14C155.469 139.28 155.729 139.35 156.029 139.35ZM163.256 141.18C162.203 141.18 161.38 140.913 160.786 140.38C160.193 139.853 159.846 139.103 159.746 138.13C159.726 137.937 159.716 137.65 159.716 137.27C159.716 136.87 159.726 136.587 159.746 136.42C159.846 135.473 160.193 134.727 160.786 134.18C161.386 133.627 162.196 133.35 163.216 133.35C164.396 133.35 165.283 133.617 165.876 134.15C166.47 134.677 166.793 135.433 166.846 136.42C166.86 136.687 166.866 136.893 166.866 137.04C166.866 137.34 166.86 137.57 166.846 137.73C166.82 138.21 166.686 138.577 166.446 138.83C166.213 139.083 165.893 139.21 165.486 139.21C165.2 139.21 164.966 139.15 164.786 139.03C164.606 138.91 164.47 138.78 164.376 138.64C164.263 138.827 164.11 138.987 163.916 139.12C163.73 139.247 163.46 139.31 163.106 139.31C162.606 139.31 162.21 139.133 161.916 138.78C161.63 138.42 161.486 137.917 161.486 137.27C161.486 136.623 161.63 136.12 161.916 135.76C162.21 135.4 162.606 135.22 163.106 135.22C163.353 135.22 163.553 135.267 163.706 135.36C163.866 135.447 164.006 135.56 164.126 135.7V135.53C164.126 135.463 164.146 135.41 164.186 135.37C164.233 135.323 164.29 135.3 164.356 135.3H164.626C164.693 135.3 164.746 135.323 164.786 135.37C164.833 135.41 164.856 135.463 164.856 135.53V137.66C164.856 137.933 164.913 138.143 165.026 138.29C165.14 138.437 165.293 138.51 165.486 138.51C165.72 138.51 165.88 138.423 165.966 138.25C166.06 138.077 166.11 137.88 166.116 137.66C166.13 137.5 166.136 137.293 166.136 137.04C166.136 136.927 166.13 136.737 166.116 136.47C166.056 135.657 165.8 135.05 165.346 134.65C164.9 134.243 164.19 134.04 163.216 134.04C162.41 134.04 161.773 134.253 161.306 134.68C160.846 135.1 160.57 135.697 160.476 136.47C160.456 136.637 160.446 136.903 160.446 137.27C160.446 137.617 160.456 137.887 160.476 138.08C160.556 138.847 160.833 139.44 161.306 139.86C161.78 140.273 162.43 140.48 163.256 140.48C163.69 140.48 164.046 140.443 164.326 140.37C164.613 140.303 164.82 140.23 164.946 140.15C165.08 140.07 165.233 139.963 165.406 139.83C165.42 139.823 165.45 139.8 165.496 139.76C165.543 139.727 165.6 139.71 165.666 139.71H166.066C166.126 139.71 166.176 139.73 166.216 139.77C166.263 139.81 166.286 139.863 166.286 139.93C166.286 139.983 166.266 140.03 166.226 140.07C165.92 140.403 165.53 140.67 165.056 140.87C164.59 141.077 163.99 141.18 163.256 141.18ZM163.166 138.61C163.506 138.61 163.75 138.497 163.896 138.27C164.05 138.037 164.126 137.703 164.126 137.27C164.126 136.837 164.05 136.503 163.896 136.27C163.75 136.037 163.506 135.92 163.166 135.92C162.84 135.92 162.6 136.04 162.446 136.28C162.293 136.513 162.216 136.843 162.216 137.27C162.216 137.663 162.293 137.987 162.446 138.24C162.606 138.487 162.846 138.61 163.166 138.61ZM170.337 142.2C169.79 142.2 169.35 142.107 169.017 141.92C168.683 141.74 168.447 141.533 168.307 141.3C168.167 141.067 168.09 140.857 168.077 140.67C168.07 140.603 168.09 140.547 168.137 140.5C168.19 140.453 168.247 140.43 168.307 140.43H168.787C168.847 140.43 168.897 140.443 168.937 140.47C168.977 140.503 169.01 140.56 169.037 140.64C169.117 140.853 169.247 141.037 169.427 141.19C169.613 141.35 169.9 141.43 170.287 141.43C170.78 141.43 171.143 141.323 171.377 141.11C171.61 140.903 171.727 140.533 171.727 140V139.32C171.553 139.54 171.333 139.717 171.067 139.85C170.8 139.977 170.483 140.04 170.117 140.04C169.41 140.04 168.88 139.817 168.527 139.37C168.18 138.917 167.997 138.343 167.977 137.65L167.967 137.37L167.977 137.1C167.997 136.413 168.183 135.843 168.537 135.39C168.89 134.93 169.417 134.7 170.117 134.7C170.817 134.7 171.363 134.957 171.757 135.47V135.04C171.757 134.973 171.777 134.917 171.817 134.87C171.863 134.823 171.92 134.8 171.987 134.8H172.447C172.513 134.8 172.57 134.823 172.617 134.87C172.663 134.917 172.687 134.973 172.687 135.04V139.89C172.687 141.43 171.903 142.2 170.337 142.2ZM170.317 139.24C170.77 139.24 171.113 139.09 171.347 138.79C171.58 138.49 171.707 138.133 171.727 137.72C171.733 137.66 171.737 137.543 171.737 137.37C171.737 137.203 171.733 137.09 171.727 137.03C171.707 136.617 171.58 136.26 171.347 135.96C171.12 135.66 170.777 135.51 170.317 135.51C169.843 135.51 169.5 135.657 169.287 135.95C169.073 136.243 168.957 136.63 168.937 137.11L168.927 137.37L168.937 137.64C168.957 138.113 169.073 138.5 169.287 138.8C169.5 139.093 169.843 139.24 170.317 139.24ZM174.404 140C174.337 140 174.28 139.98 174.234 139.94C174.194 139.893 174.174 139.837 174.174 139.77V135.03C174.174 134.963 174.194 134.91 174.234 134.87C174.28 134.823 174.337 134.8 174.404 134.8H174.854C174.92 134.8 174.974 134.823 175.014 134.87C175.06 134.91 175.084 134.963 175.084 135.03V135.38C175.43 134.927 175.914 134.7 176.534 134.7C177.274 134.7 177.797 135.007 178.104 135.62C178.264 135.34 178.49 135.117 178.784 134.95C179.077 134.783 179.407 134.7 179.774 134.7C180.32 134.7 180.767 134.887 181.114 135.26C181.46 135.633 181.634 136.173 181.634 136.88V139.77C181.634 139.837 181.61 139.893 181.564 139.94C181.524 139.98 181.47 140 181.404 140H180.934C180.867 140 180.81 139.98 180.764 139.94C180.724 139.893 180.704 139.837 180.704 139.77V136.97C180.704 136.45 180.594 136.077 180.374 135.85C180.16 135.623 179.877 135.51 179.524 135.51C179.21 135.51 178.94 135.627 178.714 135.86C178.487 136.087 178.374 136.457 178.374 136.97V139.77C178.374 139.837 178.35 139.893 178.304 139.94C178.264 139.98 178.21 140 178.144 140H177.674C177.607 140 177.55 139.98 177.504 139.94C177.464 139.893 177.444 139.837 177.444 139.77V136.97C177.444 136.45 177.33 136.077 177.104 135.85C176.884 135.623 176.604 135.51 176.264 135.51C175.95 135.51 175.68 135.627 175.454 135.86C175.227 136.087 175.114 136.453 175.114 136.96V139.77C175.114 139.837 175.09 139.893 175.044 139.94C175.004 139.98 174.95 140 174.884 140H174.404ZM184.51 140.1C184.184 140.1 183.88 140.033 183.6 139.9C183.32 139.767 183.097 139.587 182.93 139.36C182.77 139.127 182.69 138.87 182.69 138.59C182.69 138.15 182.87 137.79 183.23 137.51C183.597 137.223 184.09 137.037 184.71 136.95L186.2 136.74V136.45C186.2 135.77 185.81 135.43 185.03 135.43C184.737 135.43 184.497 135.493 184.31 135.62C184.124 135.74 183.984 135.883 183.89 136.05C183.87 136.11 183.844 136.153 183.81 136.18C183.784 136.207 183.744 136.22 183.69 136.22H183.26C183.2 136.22 183.147 136.2 183.1 136.16C183.06 136.113 183.04 136.06 183.04 136C183.047 135.84 183.12 135.66 183.26 135.46C183.407 135.253 183.63 135.077 183.93 134.93C184.23 134.777 184.6 134.7 185.04 134.7C185.787 134.7 186.324 134.877 186.65 135.23C186.977 135.577 187.14 136.01 187.14 136.53V139.77C187.14 139.837 187.117 139.893 187.07 139.94C187.03 139.98 186.977 140 186.91 140H186.45C186.384 140 186.327 139.98 186.28 139.94C186.24 139.893 186.22 139.837 186.22 139.77V139.34C186.074 139.553 185.86 139.733 185.58 139.88C185.3 140.027 184.944 140.1 184.51 140.1ZM184.72 139.35C185.154 139.35 185.507 139.21 185.78 138.93C186.06 138.643 186.2 138.233 186.2 137.7V137.42L185.04 137.59C184.567 137.657 184.21 137.77 183.97 137.93C183.73 138.083 183.61 138.28 183.61 138.52C183.61 138.787 183.72 138.993 183.94 139.14C184.16 139.28 184.42 139.35 184.72 139.35ZM188.728 133.83C188.661 133.83 188.605 133.81 188.558 133.77C188.518 133.723 188.498 133.667 188.498 133.6V133.06C188.498 132.993 188.518 132.937 188.558 132.89C188.605 132.843 188.661 132.82 188.728 132.82H189.358C189.425 132.82 189.481 132.843 189.528 132.89C189.575 132.937 189.598 132.993 189.598 133.06V133.6C189.598 133.667 189.575 133.723 189.528 133.77C189.481 133.81 189.425 133.83 189.358 133.83H188.728ZM188.808 140C188.741 140 188.685 139.98 188.638 139.94C188.598 139.893 188.578 139.837 188.578 139.77V135.03C188.578 134.963 188.598 134.91 188.638 134.87C188.685 134.823 188.741 134.8 188.808 134.8H189.288C189.355 134.8 189.408 134.823 189.448 134.87C189.495 134.91 189.518 134.963 189.518 135.03V139.77C189.518 139.837 189.495 139.893 189.448 139.94C189.408 139.98 189.355 140 189.288 140H188.808ZM191.24 140C191.173 140 191.116 139.98 191.07 139.94C191.03 139.893 191.01 139.837 191.01 139.77V133.13C191.01 133.063 191.03 133.01 191.07 132.97C191.116 132.923 191.173 132.9 191.24 132.9H191.71C191.776 132.9 191.83 132.923 191.87 132.97C191.916 133.01 191.94 133.063 191.94 133.13V139.77C191.94 139.837 191.916 139.893 191.87 139.94C191.83 139.98 191.776 140 191.71 140H191.24ZM193.591 140C193.525 140 193.468 139.98 193.421 139.94C193.381 139.893 193.361 139.837 193.361 139.77V139.05C193.361 138.983 193.381 138.93 193.421 138.89C193.468 138.843 193.525 138.82 193.591 138.82H194.311C194.378 138.82 194.435 138.843 194.481 138.89C194.528 138.93 194.551 138.983 194.551 139.05V139.77C194.551 139.837 194.528 139.893 194.481 139.94C194.435 139.98 194.378 140 194.311 140H193.591ZM197.953 140.1C197.24 140.1 196.68 139.9 196.273 139.5C195.873 139.093 195.66 138.527 195.633 137.8L195.623 137.4L195.633 137C195.66 136.273 195.873 135.71 196.273 135.31C196.68 134.903 197.24 134.7 197.953 134.7C198.433 134.7 198.84 134.787 199.173 134.96C199.507 135.133 199.753 135.347 199.913 135.6C200.08 135.853 200.17 136.107 200.183 136.36C200.19 136.427 200.17 136.48 200.123 136.52C200.077 136.56 200.02 136.58 199.953 136.58H199.473C199.407 136.58 199.357 136.567 199.323 136.54C199.29 136.513 199.257 136.46 199.223 136.38C199.11 136.06 198.95 135.833 198.743 135.7C198.537 135.56 198.277 135.49 197.963 135.49C197.55 135.49 197.22 135.62 196.973 135.88C196.733 136.133 196.603 136.523 196.583 137.05L196.573 137.41L196.583 137.75C196.603 138.283 196.733 138.677 196.973 138.93C197.213 139.183 197.543 139.31 197.963 139.31C198.277 139.31 198.537 139.243 198.743 139.11C198.95 138.97 199.11 138.74 199.223 138.42C199.257 138.34 199.29 138.287 199.323 138.26C199.357 138.227 199.407 138.21 199.473 138.21H199.953C200.02 138.21 200.077 138.233 200.123 138.28C200.17 138.32 200.19 138.373 200.183 138.44C200.17 138.687 200.08 138.94 199.913 139.2C199.753 139.453 199.507 139.667 199.173 139.84C198.847 140.013 198.44 140.1 197.953 140.1ZM203.501 140.1C202.768 140.1 202.198 139.893 201.791 139.48C201.391 139.067 201.178 138.517 201.151 137.83L201.141 137.4L201.151 136.97C201.178 136.29 201.394 135.743 201.801 135.33C202.208 134.91 202.774 134.7 203.501 134.7C204.228 134.7 204.794 134.91 205.201 135.33C205.608 135.743 205.824 136.29 205.851 136.97C205.858 137.043 205.861 137.187 205.861 137.4C205.861 137.613 205.858 137.757 205.851 137.83C205.824 138.517 205.608 139.067 205.201 139.48C204.801 139.893 204.234 140.1 203.501 140.1ZM203.501 139.33C203.921 139.33 204.251 139.197 204.491 138.93C204.738 138.663 204.871 138.28 204.891 137.78C204.898 137.713 204.901 137.587 204.901 137.4C204.901 137.213 204.898 137.087 204.891 137.02C204.871 136.52 204.738 136.137 204.491 135.87C204.251 135.603 203.921 135.47 203.501 135.47C203.081 135.47 202.748 135.603 202.501 135.87C202.254 136.137 202.124 136.52 202.111 137.02L202.101 137.4L202.111 137.78C202.124 138.28 202.254 138.663 202.501 138.93C202.748 139.197 203.081 139.33 203.501 139.33ZM207.343 140C207.276 140 207.22 139.98 207.173 139.94C207.133 139.893 207.113 139.837 207.113 139.77V135.03C207.113 134.963 207.133 134.91 207.173 134.87C207.22 134.823 207.276 134.8 207.343 134.8H207.793C207.86 134.8 207.913 134.823 207.953 134.87C208 134.91 208.023 134.963 208.023 135.03V135.38C208.37 134.927 208.853 134.7 209.473 134.7C210.213 134.7 210.736 135.007 211.043 135.62C211.203 135.34 211.43 135.117 211.723 134.95C212.016 134.783 212.346 134.7 212.713 134.7C213.26 134.7 213.706 134.887 214.053 135.26C214.4 135.633 214.573 136.173 214.573 136.88V139.77C214.573 139.837 214.55 139.893 214.503 139.94C214.463 139.98 214.41 140 214.343 140H213.873C213.806 140 213.75 139.98 213.703 139.94C213.663 139.893 213.643 139.837 213.643 139.77V136.97C213.643 136.45 213.533 136.077 213.313 135.85C213.1 135.623 212.816 135.51 212.463 135.51C212.15 135.51 211.88 135.627 211.653 135.86C211.426 136.087 211.313 136.457 211.313 136.97V139.77C211.313 139.837 211.29 139.893 211.243 139.94C211.203 139.98 211.15 140 211.083 140H210.613C210.546 140 210.49 139.98 210.443 139.94C210.403 139.893 210.383 139.837 210.383 139.77V136.97C210.383 136.45 210.27 136.077 210.043 135.85C209.823 135.623 209.543 135.51 209.203 135.51C208.89 135.51 208.62 135.627 208.393 135.86C208.166 136.087 208.053 136.453 208.053 136.96V139.77C208.053 139.837 208.03 139.893 207.983 139.94C207.943 139.98 207.89 140 207.823 140H207.343Z" fill="#75798C"/>
</g>
</svg>
