<svg width="36" height="41" viewBox="0 0 36 41" fill="none" xmlns="http://www.w3.org/2000/svg">
<g id="account-icon">
<circle id="user-icon-bg" cx="18" cy="18.381" r="18" fill="#D0D1D8"/>
<g id="user-icon">
<circle id="Ellipse 1" cx="18.2857" cy="11.6667" r="6.42857" stroke="#75798C" stroke-width="2"/>
<g id="Ellipse 2">
<mask id="path-3-inside-1" fill="white">
<path d="M28.5714 30.5238C28.5714 29.1731 28.3054 27.8356 27.7885 26.5876C27.2716 25.3397 26.5139 24.2058 25.5588 23.2507C24.6037 22.2956 23.4698 21.538 22.2219 21.0211C20.974 20.5041 19.6365 20.2381 18.2857 20.2381C16.935 20.2381 15.5975 20.5041 14.3495 21.0211C13.1016 21.538 11.9677 22.2956 11.0126 23.2507C10.0575 24.2058 9.29986 25.3397 8.78295 26.5876C8.26605 27.8356 8 29.1731 8 30.5238L18.2857 30.5238H28.5714Z"/>
</mask>
<path d="M28.5714 30.5238C28.5714 29.1731 28.3054 27.8356 27.7885 26.5876C27.2716 25.3397 26.5139 24.2058 25.5588 23.2507C24.6037 22.2956 23.4698 21.538 22.2219 21.0211C20.974 20.5041 19.6365 20.2381 18.2857 20.2381C16.935 20.2381 15.5975 20.5041 14.3495 21.0211C13.1016 21.538 11.9677 22.2956 11.0126 23.2507C10.0575 24.2058 9.29986 25.3397 8.78295 26.5876C8.26605 27.8356 8 29.1731 8 30.5238L18.2857 30.5238H28.5714Z" stroke="#75798C" stroke-width="4" mask="url(#path-3-inside-1)"/>
</g>
</g>
</g>
</svg>
