<svg width="36" height="29" viewBox="0 0 36 29" fill="none" xmlns="http://www.w3.org/2000/svg">
<path d="M26 27.6667H34.3333V24.3333C34.3333 21.5719 32.0948 19.3333 29.3333 19.3333C27.7407 19.3333 26.3219 20.078 25.4063 21.2382M26 27.6667H9.33333M26 27.6667V24.3333C26 23.2396 25.7893 22.1951 25.4063 21.2382M9.33333 27.6667H1V24.3333C1 21.5719 3.23858 19.3333 6 19.3333C7.59268 19.3333 9.01143 20.078 9.92708 21.2382M9.33333 27.6667V24.3333C9.33333 23.2396 9.54404 22.1951 9.92708 21.2382M9.92708 21.2382C11.1558 18.1684 14.158 16 17.6667 16C21.1753 16 24.1775 18.1684 25.4063 21.2382M22.6667 6C22.6667 8.76142 20.4281 11 17.6667 11C14.9052 11 12.6667 8.76142 12.6667 6C12.6667 3.23858 14.9052 1 17.6667 1C20.4281 1 22.6667 3.23858 22.6667 6ZM32.6667 11C32.6667 12.8409 31.1743 14.3333 29.3333 14.3333C27.4924 14.3333 26 12.8409 26 11C26 9.15905 27.4924 7.66667 29.3333 7.66667C31.1743 7.66667 32.6667 9.15905 32.6667 11ZM9.33333 11C9.33333 12.8409 7.84095 14.3333 6 14.3333C4.15905 14.3333 2.66667 12.8409 2.66667 11C2.66667 9.15905 4.15905 7.66667 6 7.66667C7.84095 7.66667 9.33333 9.15905 9.33333 11Z" stroke="#F0F1F5" stroke-width="2" stroke-linecap="round" stroke-linejoin="round"/>
</svg>
