<svg width="40" height="41" viewBox="0 0 40 41" fill="none" xmlns="http://www.w3.org/2000/svg">
<path d="M15.7076 22.6497C15.3173 22.259 14.6841 22.2587 14.2934 22.649C13.9027 23.0394 13.9024 23.6725 14.2927 24.0632L15.7076 22.6497ZM18.3335 26.6931L17.626 27.3999C17.8136 27.5877 18.0681 27.6931 18.3335 27.6931C18.5989 27.6931 18.8534 27.5877 19.041 27.3999L18.3335 26.6931ZM25.7076 20.7266C26.098 20.3359 26.0976 19.7027 25.7069 19.3124C25.3162 18.922 24.683 18.9224 24.2927 19.3131L25.7076 20.7266ZM30.6668 11.6782V31.6981H32.6668V11.6782H30.6668ZM28.3335 34.0348H11.6668V36.0348H28.3335V34.0348ZM9.3335 31.6981V11.6782H7.3335V31.6981H9.3335ZM11.6668 9.34154H15.0002V7.34154H11.6668V9.34154ZM25.0002 9.34154H28.3335V7.34154H25.0002V9.34154ZM11.6668 34.0348C10.3791 34.0348 9.3335 32.9896 9.3335 31.6981H7.3335C7.3335 34.0923 9.27266 36.0348 11.6668 36.0348V34.0348ZM30.6668 31.6981C30.6668 32.9896 29.6212 34.0348 28.3335 34.0348V36.0348C30.7277 36.0348 32.6668 34.0923 32.6668 31.6981H30.6668ZM32.6668 11.6782C32.6668 9.28407 30.7277 7.34154 28.3335 7.34154V9.34154C29.6212 9.34154 30.6668 10.3868 30.6668 11.6782H32.6668ZM9.3335 11.6782C9.3335 10.3868 10.3791 9.34154 11.6668 9.34154V7.34154C9.27266 7.34154 7.3335 9.28407 7.3335 11.6782H9.3335ZM14.2927 24.0632L17.626 27.3999L19.041 25.9864L15.7076 22.6497L14.2927 24.0632ZM19.041 27.3999L25.7076 20.7266L24.2927 19.3131L17.626 25.9864L19.041 27.3999ZM18.3335 6.00488H21.6668V4.00488H18.3335V6.00488ZM21.6668 10.6782H18.3335V12.6782H21.6668V10.6782ZM18.3335 10.6782C17.0458 10.6782 16.0002 9.63298 16.0002 8.34154H14.0002C14.0002 10.7357 15.9393 12.6782 18.3335 12.6782V10.6782ZM24.0002 8.34154C24.0002 9.63298 22.9546 10.6782 21.6668 10.6782V12.6782C24.061 12.6782 26.0002 10.7357 26.0002 8.34154H24.0002ZM21.6668 6.00488C22.9546 6.00488 24.0002 7.0501 24.0002 8.34154H26.0002C26.0002 5.94741 24.061 4.00488 21.6668 4.00488V6.00488ZM18.3335 4.00488C15.9393 4.00488 14.0002 5.94741 14.0002 8.34154H16.0002C16.0002 7.0501 17.0458 6.00488 18.3335 6.00488V4.00488Z" fill="#E6E8EA"/>
</svg>
