<svg width="40" height="40" viewBox="0 0 40 40" fill="none" xmlns="http://www.w3.org/2000/svg">
<path d="M39.5 19.9605C39.5 30.7074 30.7705 39.4211 20 39.4211C9.22952 39.4211 0.5 30.7074 0.5 19.9605C0.5 9.21371 9.22952 0.5 20 0.5C30.7705 0.5 39.5 9.21371 39.5 19.9605Z" fill="#F5F5F5" stroke="#D0D1D8"/>
<path d="M20.0194 40C23.9274 40.0064 27.7508 38.8644 31.0128 36.7165C30.2758 32.6968 27.4711 32.4678 27.4711 32.4678H12.0045C12.0045 32.4678 9.35785 32.6845 8.53125 36.3823C11.8944 38.7433 15.9075 40.0071 20.0194 40V40Z" fill="#00BFA6"/>
<path d="M19.8058 29.1743C25.1372 29.1743 29.4592 24.8608 29.4592 19.5399C29.4592 14.219 25.1372 9.90552 19.8058 9.90552C14.4743 9.90552 10.1523 14.219 10.1523 19.5399C10.1523 24.8608 14.4743 29.1743 19.8058 29.1743Z" fill="#333333"/>
<path opacity="0.1" d="M16.6904 27.5647H22.8759V32.5034C22.8759 33.3218 22.5502 34.1068 21.9705 34.6856C21.3907 35.2644 20.6044 35.5898 19.7843 35.5901V35.5901C18.9641 35.5901 18.1774 35.2649 17.5974 34.686C17.0174 34.1071 16.6916 33.3221 16.6916 32.5034V27.5647H16.6904Z" fill="black"/>
<path d="M16.8863 27.3357H22.6819C22.7339 27.3357 22.7838 27.3563 22.8206 27.393C22.8574 27.4297 22.878 27.4795 22.878 27.5314V32.2744C22.8781 32.6799 22.7981 33.0814 22.6427 33.4561C22.4872 33.8307 22.2593 34.1711 21.972 34.4578C21.6847 34.7445 21.3436 34.9719 20.9682 35.1269C20.5928 35.282 20.1904 35.3618 19.7841 35.3616V35.3616C18.9639 35.3616 18.1772 35.0364 17.5972 34.4576C17.0172 33.8787 16.6914 33.0936 16.6914 32.275V27.5314C16.6914 27.4797 16.7119 27.4301 16.7484 27.3934C16.785 27.3568 16.8345 27.336 16.8863 27.3357V27.3357Z" fill="#FDB797"/>
<path opacity="0.1" d="M16.7021 29.8959C18.6957 30.6392 20.89 30.6452 22.8876 29.9128V29.1533H16.7021V29.8959Z" fill="black"/>
<path d="M19.8065 30.309C24.7031 30.309 28.6726 26.3473 28.6726 21.4604C28.6726 16.5735 24.7031 12.6118 19.8065 12.6118C14.9099 12.6118 10.9404 16.5735 10.9404 21.4604C10.9404 26.3473 14.9099 30.309 19.8065 30.309Z" fill="#FDB797"/>
<path opacity="0.1" d="M13.4902 13.4116C13.4902 13.4116 17.2269 20.9812 27.7673 16.5853L25.3132 12.745L20.963 11.1868L13.4902 13.4116Z" fill="black"/>
<path d="M13.4902 13.3005C13.4902 13.3005 17.2269 20.8701 27.7673 16.473L25.3132 12.6327L20.963 11.0745L13.4902 13.3005Z" fill="#333333"/>
<path d="M13.4585 12.7877C13.7105 12.0093 14.1459 11.3026 14.7283 10.727C16.4722 9.0064 19.3314 8.64358 20.7978 6.68164C21.1491 7.22617 20.8774 8.06341 20.271 8.29711C21.676 8.28776 23.304 8.16507 24.0984 7.01175C24.2947 7.46789 24.3573 7.97028 24.2788 8.46052C24.2004 8.95075 23.9841 9.4087 23.6552 9.78112C24.9004 9.83955 26.231 10.6809 26.3095 11.9224C26.3633 12.7497 25.8412 13.5326 25.1627 14.0071C24.4842 14.4815 23.6576 14.6994 22.8468 14.8776C20.4794 15.3993 11.9136 17.5827 13.4585 12.7877Z" fill="#333333"/>
<path d="M10.9362 22.9957C11.3917 22.9957 11.761 22.3046 11.761 21.4521C11.761 20.5995 11.3917 19.9084 10.9362 19.9084C10.4806 19.9084 10.1113 20.5995 10.1113 21.4521C10.1113 22.3046 10.4806 22.9957 10.9362 22.9957Z" fill="#FDB797"/>
<path d="M28.6706 22.9957C29.1261 22.9957 29.4954 22.3046 29.4954 21.4521C29.4954 20.5995 29.1261 19.9084 28.6706 19.9084C28.215 19.9084 27.8457 20.5995 27.8457 21.4521C27.8457 22.3046 28.215 22.9957 28.6706 22.9957Z" fill="#FDB797"/>
</svg>
