<svg width="40" height="40" viewBox="0 0 40 40" fill="none" xmlns="http://www.w3.org/2000/svg">
<path d="M39.5 19.9605C39.5 30.7074 30.7705 39.4211 20 39.4211C9.22952 39.4211 0.5 30.7074 0.5 19.9605C0.5 9.21371 9.22952 0.5 20 0.5C30.7705 0.5 39.5 9.21371 39.5 19.9605Z" fill="#F5F5F5" stroke="#D0D1D8"/>
<path d="M20.0194 40C23.9274 40.0064 27.7508 38.8644 31.0128 36.7165C30.2758 32.6968 27.4711 32.4678 27.4711 32.4678H12.0045C12.0045 32.4678 9.35785 32.6845 8.53125 36.3823C11.8944 38.7433 15.9075 40.0071 20.0194 40V40Z" fill="#F9A826"/>
<path d="M19.8068 29.1743C25.1382 29.1743 29.4602 24.8608 29.4602 19.5399C29.4602 14.219 25.1382 9.90552 19.8068 9.90552C14.4753 9.90552 10.1533 14.219 10.1533 19.5399C10.1533 24.8608 14.4753 29.1743 19.8068 29.1743Z" fill="#333333"/>
<path opacity="0.1" d="M16.6904 27.5647H22.8759V32.5034C22.8759 33.3218 22.5502 34.1068 21.9705 34.6856C21.3907 35.2644 20.6044 35.5898 19.7843 35.5901V35.5901C18.9641 35.5901 18.1774 35.2649 17.5974 34.686C17.0174 34.1071 16.6916 33.3221 16.6916 32.5034V27.5647H16.6904Z" fill="black"/>
<path d="M16.8873 27.3357H22.6829C22.7349 27.3357 22.7848 27.3563 22.8216 27.393C22.8584 27.4297 22.879 27.4795 22.879 27.5314V32.2744C22.8791 32.6799 22.7991 33.0814 22.6437 33.4561C22.4882 33.8307 22.2603 34.1711 21.973 34.4578C21.6857 34.7445 21.3445 34.9719 20.9691 35.1269C20.5937 35.282 20.1914 35.3618 19.7851 35.3616V35.3616C18.9649 35.3616 18.1782 35.0364 17.5982 34.4576C17.0182 33.8787 16.6924 33.0936 16.6924 32.275V27.5314C16.6924 27.4797 16.7129 27.4301 16.7494 27.3934C16.7859 27.3568 16.8355 27.336 16.8873 27.3357V27.3357Z" fill="#FDB797"/>
<path opacity="0.1" d="M16.7021 29.8959C18.6957 30.6392 20.89 30.6452 22.8876 29.9128V29.1533H16.7021V29.8959Z" fill="black"/>
<path d="M19.8065 30.309C24.7031 30.309 28.6726 26.3473 28.6726 21.4604C28.6726 16.5735 24.7031 12.6118 19.8065 12.6118C14.9099 12.6118 10.9404 16.5735 10.9404 21.4604C10.9404 26.3473 14.9099 30.309 19.8065 30.309Z" fill="#FDB797"/>
<path opacity="0.1" d="M13.4902 13.4116C13.4902 13.4116 17.2269 20.9812 27.7673 16.5853L25.3132 12.745L20.963 11.1868L13.4902 13.4116Z" fill="black"/>
<path d="M13.4902 13.3007C13.4902 13.3007 17.2269 20.8704 27.7673 16.4732L25.3132 12.6329L20.963 11.0747L13.4902 13.3007Z" fill="#333333"/>
<path d="M13.4575 12.7877C13.7095 12.0093 14.1449 11.3026 14.7273 10.727C16.4712 9.0064 19.3304 8.64357 20.7969 6.68164C21.1481 7.22617 20.8765 8.06341 20.27 8.29711C21.675 8.28776 23.303 8.16507 24.0974 7.01175C24.2937 7.46789 24.3563 7.97028 24.2779 8.46051C24.1994 8.95075 23.9832 9.4087 23.6543 9.78112C24.8994 9.83955 26.2301 10.6809 26.3085 11.9224C26.3624 12.7497 25.8402 13.5326 25.1617 14.007C24.4832 14.4815 23.6566 14.6994 22.8458 14.8776C20.4784 15.3993 11.9126 17.5827 13.4575 12.7877Z" fill="#333333"/>
<path d="M10.9362 22.9957C11.3917 22.9957 11.761 22.3046 11.761 21.4521C11.761 20.5995 11.3917 19.9084 10.9362 19.9084C10.4806 19.9084 10.1113 20.5995 10.1113 21.4521C10.1113 22.3046 10.4806 22.9957 10.9362 22.9957Z" fill="#FDB797"/>
<path d="M28.6706 22.9957C29.1261 22.9957 29.4954 22.3046 29.4954 21.4521C29.4954 20.5995 29.1261 19.9084 28.6706 19.9084C28.215 19.9084 27.8457 20.5995 27.8457 21.4521C27.8457 22.3046 28.215 22.9957 28.6706 22.9957Z" fill="#FDB797"/>
</svg>
