<svg width="40" height="40" viewBox="0 0 40 40" fill="none" xmlns="http://www.w3.org/2000/svg">
<path d="M39.5 19.9606C39.5 30.7074 30.7705 39.4211 20 39.4211C9.22952 39.4211 0.5 30.7074 0.5 19.9606C0.5 9.21372 9.22952 0.5 20 0.5C30.7705 0.5 39.5 9.21372 39.5 19.9606Z" fill="#F5F5F5" stroke="#D0D1D8"/>
<path d="M20.0184 40C23.9264 40.0064 27.7498 38.8644 31.0118 36.7165C30.2748 32.6968 27.4701 32.4678 27.4701 32.4678H12.0035C12.0035 32.4678 9.35687 32.6845 8.53027 36.3823C11.8934 38.7433 15.9066 40.0071 20.0184 40V40Z" fill="#F50057"/>
<path d="M19.8058 29.1743C25.1372 29.1743 29.4592 24.8608 29.4592 19.5399C29.4592 14.219 25.1372 9.90552 19.8058 9.90552C14.4743 9.90552 10.1523 14.219 10.1523 19.5399C10.1523 24.8608 14.4743 29.1743 19.8058 29.1743Z" fill="#333333"/>
<path opacity="0.1" d="M16.6904 27.5647H22.8759V32.5034C22.8759 33.3218 22.5502 34.1068 21.9705 34.6856C21.3907 35.2644 20.6044 35.5897 19.7843 35.5901V35.5901C18.9641 35.5901 18.1774 35.2649 17.5974 34.686C17.0174 34.1071 16.6916 33.322 16.6916 32.5034V27.5647H16.6904Z" fill="black"/>
<path d="M16.8863 27.3357H22.6819C22.7339 27.3357 22.7838 27.3563 22.8206 27.393C22.8574 27.4297 22.878 27.4795 22.878 27.5314V32.2744C22.8781 32.6799 22.7981 33.0814 22.6427 33.4561C22.4872 33.8307 22.2593 34.1711 21.972 34.4578C21.6847 34.7445 21.3436 34.9719 20.9682 35.127C20.5928 35.282 20.1904 35.3618 19.7841 35.3616V35.3616C18.9639 35.3616 18.1772 35.0364 17.5972 34.4576C17.0172 33.8787 16.6914 33.0936 16.6914 32.275V27.5314C16.6914 27.4797 16.7119 27.4301 16.7484 27.3934C16.785 27.3568 16.8345 27.336 16.8863 27.3357V27.3357Z" fill="#FDB797"/>
<path opacity="0.1" d="M16.7012 29.8959C18.6947 30.6392 20.8891 30.6452 22.8866 29.9129V29.1533H16.7012V29.8959Z" fill="black"/>
<path d="M19.8055 30.3089C24.7021 30.3089 28.6716 26.3473 28.6716 21.4604C28.6716 16.5735 24.7021 12.6118 19.8055 12.6118C14.9089 12.6118 10.9395 16.5735 10.9395 21.4604C10.9395 26.3473 14.9089 30.3089 19.8055 30.3089Z" fill="#FDB797"/>
<path opacity="0.1" d="M13.4902 13.4116C13.4902 13.4116 17.2269 20.9812 27.7672 16.5853L25.3132 12.745L20.963 11.1868L13.4902 13.4116Z" fill="black"/>
<path d="M13.4902 13.3007C13.4902 13.3007 17.2269 20.8704 27.7672 16.4732L25.3132 12.6329L20.963 11.0747L13.4902 13.3007Z" fill="#333333"/>
<path d="M13.731 11.9708C13.9829 11.1924 14.4184 10.4857 15.0007 9.91014C16.7447 8.1895 19.6038 7.82668 21.0703 5.86475C21.4215 6.40927 21.1499 7.24651 20.5434 7.48022C21.9484 7.47087 23.5765 7.34817 24.3709 6.19485C24.5672 6.651 24.6298 7.15338 24.5513 7.64362C24.4729 8.13385 24.2566 8.5918 23.9277 8.96423C25.1729 9.02265 26.5035 9.86398 26.582 11.1055C26.6358 11.9328 26.1136 12.7157 25.4351 13.1902C24.7566 13.6646 23.93 13.8825 23.1192 14.0607C20.7518 14.5824 12.1861 16.7658 13.731 11.9708Z" fill="#333333"/>
<path d="M10.9362 22.9957C11.3917 22.9957 11.761 22.3046 11.761 21.4521C11.761 20.5995 11.3917 19.9084 10.9362 19.9084C10.4806 19.9084 10.1113 20.5995 10.1113 21.4521C10.1113 22.3046 10.4806 22.9957 10.9362 22.9957Z" fill="#FDB797"/>
<path d="M28.6706 22.9957C29.1261 22.9957 29.4954 22.3046 29.4954 21.4521C29.4954 20.5995 29.1261 19.9084 28.6706 19.9084C28.215 19.9084 27.8457 20.5995 27.8457 21.4521C27.8457 22.3046 28.215 22.9957 28.6706 22.9957Z" fill="#FDB797"/>
</svg>
