<svg width="40" height="41" viewBox="0 0 40 41" fill="none" xmlns="http://www.w3.org/2000/svg">
<path d="M17.2077 7.20259C17.9184 4.27231 22.0816 4.27232 22.7923 7.20259C23.2514 9.09551 25.4179 9.99381 27.0797 8.98026C29.6522 7.41126 32.596 10.3581 31.0286 12.9331C30.016 14.5965 30.9135 16.7652 32.8045 17.2248C35.7318 17.9361 35.7318 22.1035 32.8045 22.8149C30.9135 23.2745 30.016 25.4431 31.0286 27.1066C32.596 29.6816 29.6522 32.6284 27.0797 31.0594C25.4179 30.0459 23.2514 30.9442 22.7923 32.8371C22.0816 35.7674 17.9184 35.7674 17.2077 32.8371C16.7486 30.9442 14.5821 30.0459 12.9203 31.0594C10.3478 32.6284 7.40398 29.6816 8.97142 27.1066C9.98396 25.4431 9.08655 23.2745 7.19552 22.8149C4.26816 22.1035 4.26816 17.9361 7.19551 17.2248C9.08655 16.7652 9.98396 14.5965 8.97142 12.9331C7.40398 10.3581 10.3478 7.41126 12.9203 8.98026C14.5821 9.99381 16.7486 9.09551 17.2077 7.20259Z" stroke="#E6E8EA" stroke-width="2" stroke-linecap="round" stroke-linejoin="round"/>
<path d="M25 20.0198C25 22.784 22.7614 25.0248 20 25.0248C17.2386 25.0248 15 22.784 15 20.0198C15 17.2557 17.2386 15.0149 20 15.0149C22.7614 15.0149 25 17.2557 25 20.0198Z" stroke="#E6E8EA" stroke-width="2" stroke-linecap="round" stroke-linejoin="round"/>
</svg>
