<svg width="40" height="41" viewBox="0 0 40 41" fill="none" xmlns="http://www.w3.org/2000/svg">
<path d="M15 28.3615V11.6782M15 28.3615C15 30.2043 13.5076 31.6982 11.6667 31.6982H8.33333C6.49238 31.6982 5 30.2043 5 28.3615V11.6782C5 9.83543 6.49238 8.34155 8.33333 8.34155H11.6667C13.5076 8.34155 15 9.83543 15 11.6782M15 28.3615C15 30.2043 16.4924 31.6982 18.3333 31.6982H21.6667C23.5076 31.6982 25 30.2043 25 28.3615M15 11.6782C15 9.83543 16.4924 8.34155 18.3333 8.34155H21.6667C23.5076 8.34155 25 9.83543 25 11.6782M25 28.3615V11.6782M25 28.3615C25 30.2043 26.4924 31.6982 28.3333 31.6982H31.6667C33.5076 31.6982 35 30.2043 35 28.3615V11.6782C35 9.83543 33.5076 8.34155 31.6667 8.34155H28.3333C26.4924 8.34155 25 9.83543 25 11.6782" stroke="#E6E8EA" stroke-width="2" stroke-linecap="round" stroke-linejoin="round"/>
</svg>
